G04 Layer: TopSilkscreenLayer*
G04 EasyEDA Pro v2.2.47.7, 2026-05-09 17:53:35*
G04 Gerber Generator version 0.3*
G04 Scale: 100 percent, Rotated: No, Reflected: No*
G04 Dimensions in millimeters*
G04 Leading zeros omitted, absolute positions, 4 integers and 5 decimals*
G04 Generated by one-click*
G04 Object Configs: Pad,Via,Track,Text,Image,Dimension,BoardOutline,BoardCutout,CopperFilled,SolidRegion,FPCStiffener,Line,PlaneZone,ComponentProperty,ComponentSilkscreen,TearDrop*
G04 Layer Configs: 1,2,3,4,5,6,7,8,9,10,11,13,14,56*
G04 Copper Areas: 0*
%FSLAX45Y45*%
%MOMM*%
%ADD10C,0.254*%
%ADD11C,0.65828*%
%ADD12C,1.02508*%
%ADD13C,0.4138*%
G75*


G04 Text Start*
G36*
G01X-787712Y-918297D02*
G01X-788924Y-917994D01*
G01X-789985Y-916933D01*
G01X-790894Y-915721D01*
G01X-791651Y-914509D01*
G01X-792561Y-912994D01*
G01X-793318Y-911782D01*
G01X-794530Y-909358D01*
G01X-795742Y-906630D01*
G01X-796348Y-905418D01*
G01X-797561Y-902388D01*
G01X-798167Y-900721D01*
G01X-798621Y-899358D01*
G01X-798924Y-897539D01*
G01X-799379Y-895267D01*
G01X-800136Y-894055D01*
G01X-800894Y-894055D01*
G01X-801500Y-894812D01*
G01X-805136Y-902085D01*
G01X-806045Y-904206D01*
G01X-811045Y-914206D01*
G01X-812561Y-916630D01*
G01X-813470Y-917691D01*
G01X-814682Y-917691D01*
G01X-815742Y-917085D01*
G01X-816500Y-916479D01*
G01X-817409Y-915418D01*
G01X-818167Y-914357D01*
G01X-818773Y-913297D01*
G01X-819985Y-910873D01*
G01X-826045Y-895721D01*
G01X-828015Y-891782D01*
G01X-828773Y-890721D01*
G01X-829379Y-889812D01*
G01X-830136Y-888903D01*
G01X-830742Y-888145D01*
G01X-831651Y-885418D01*
G01X-831954Y-884206D01*
G01X-832864Y-881479D01*
G01X-833318Y-880267D01*
G01X-833924Y-879358D01*
G01X-834682Y-878600D01*
G01X-835591Y-877994D01*
G01X-836651Y-877388D01*
G01X-838015Y-876630D01*
G01X-839076Y-875873D01*
G01X-839833Y-874812D01*
G01X-840174Y-873827D01*
G01X-840288Y-872388D01*
G01X-840136Y-869964D01*
G01X-839530Y-868600D01*
G01X-838583Y-868145D01*
G01X-836651Y-867994D01*
G01X-833773Y-868145D01*
G01X-829530Y-868752D01*
G01X-827864Y-868903D01*
G01X-826197Y-868752D01*
G01X-825136Y-868600D01*
G01X-823773Y-868449D01*
G01X-822257Y-868145D01*
G01X-821045Y-867842D01*
G01X-819379Y-867539D01*
G01X-817106Y-867539D01*
G01X-815742Y-867994D01*
G01X-814985Y-868600D01*
G01X-814379Y-869509D01*
G01X-814379Y-870873D01*
G01X-814833Y-871933D01*
G01X-815439Y-872842D01*
G01X-816197Y-873752D01*
G01X-818167Y-875721D01*
G01X-818773Y-876630D01*
G01X-819227Y-877994D01*
G01X-819227Y-879964D01*
G01X-818773Y-881630D01*
G01X-818167Y-882994D01*
G01X-815742Y-887842D01*
G01X-814530Y-889964D01*
G01X-813924Y-891176D01*
G01X-813318Y-892236D01*
G01X-812712Y-893145D01*
G01X-811954Y-894206D01*
G01X-811462Y-894774D01*
G01X-810894Y-894964D01*
G01X-809985Y-894509D01*
G01X-809379Y-893600D01*
G01X-808773Y-892236D01*
G01X-807561Y-888600D01*
G01X-806348Y-884661D01*
G01X-804530Y-879206D01*
G01X-803318Y-875267D01*
G01X-802712Y-873449D01*
G01X-802106Y-871782D01*
G01X-801500Y-870570D01*
G01X-800894Y-869661D01*
G01X-800136Y-868903D01*
G01X-799076Y-868297D01*
G01X-797712Y-867994D01*
G01X-796651Y-868449D01*
G01X-795894Y-869509D01*
G01X-795136Y-870873D01*
G01X-793924Y-873297D01*
G01X-789076Y-884206D01*
G01X-787106Y-888145D01*
G01X-786197Y-889509D01*
G01X-785439Y-890570D01*
G01X-784530Y-891630D01*
G01X-783167Y-892539D01*
G01X-782106Y-892539D01*
G01X-781500Y-891782D01*
G01X-780894Y-890418D01*
G01X-779682Y-887388D01*
G01X-778015Y-882388D01*
G01X-778015Y-880570D01*
G01X-778621Y-878600D01*
G01X-779379Y-877388D01*
G01X-780136Y-876479D01*
G01X-781197Y-875418D01*
G01X-781803Y-873903D01*
G01X-781348Y-872388D01*
G01X-780439Y-871327D01*
G01X-779682Y-870721D01*
G01X-778470Y-870267D01*
G01X-777106Y-869964D01*
G01X-776348Y-869964D01*
G01X-775288Y-870115D01*
G01X-773924Y-870418D01*
G01X-772712Y-870721D01*
G01X-771197Y-870418D01*
G01X-768015Y-869358D01*
G01X-765742Y-869206D01*
G01X-763167Y-869509D01*
G01X-761955Y-870570D01*
G01X-761500Y-871933D01*
G01X-761652Y-872994D01*
G01X-761955Y-874206D01*
G01X-762561Y-875267D01*
G01X-763318Y-876024D01*
G01X-764379Y-876782D01*
G01X-765894Y-877388D01*
G01X-767258Y-878145D01*
G01X-768318Y-878903D01*
G01X-769227Y-879661D01*
G01X-769985Y-880570D01*
G01X-770591Y-881630D01*
G01X-771045Y-882994D01*
G01X-771349Y-884206D01*
G01X-771955Y-887236D01*
G01X-772864Y-891327D01*
G01X-773318Y-892691D01*
G01X-773924Y-893751D01*
G01X-774833Y-895115D01*
G01X-777258Y-898145D01*
G01X-778167Y-899509D01*
G01X-778773Y-900721D01*
G01X-779682Y-903448D01*
G01X-780591Y-906479D01*
G01X-781500Y-909206D01*
G01X-781955Y-910418D01*
G01X-782864Y-912539D01*
G01X-783470Y-913903D01*
G01X-784985Y-916327D01*
G01X-786197Y-917691D01*
G01X-787712Y-918297D01*
G37*
G36*
G01X-737409Y-917539D02*
G01X-738470Y-917539D01*
G01X-740136Y-917236D01*
G01X-741955Y-916933D01*
G01X-744076Y-916630D01*
G01X-747864Y-916479D01*
G01X-751955Y-916630D01*
G01X-753167Y-916933D01*
G01X-755136Y-917085D01*
G01X-757258Y-916782D01*
G01X-758318Y-916176D01*
G01X-759076Y-914964D01*
G01X-759227Y-913600D01*
G01X-758924Y-912388D01*
G01X-758318Y-911327D01*
G01X-757409Y-910721D01*
G01X-756197Y-910115D01*
G01X-754833Y-909358D01*
G01X-753773Y-908297D01*
G01X-753167Y-907085D01*
G01X-752864Y-906024D01*
G01X-752712Y-904358D01*
G01X-752864Y-901782D01*
G01X-753167Y-899964D01*
G01X-753470Y-897539D01*
G01X-753621Y-891479D01*
G01X-753773Y-884812D01*
G01X-754227Y-882994D01*
G01X-755136Y-881630D01*
G01X-756652Y-880721D01*
G01X-758318Y-880115D01*
G01X-759682Y-879206D01*
G01X-760136Y-878562D01*
G01X-760288Y-877842D01*
G01X-759985Y-876630D01*
G01X-759379Y-875721D01*
G01X-758470Y-874964D01*
G01X-757258Y-874358D01*
G01X-755894Y-873903D01*
G01X-752258Y-872539D01*
G01X-750894Y-871933D01*
G01X-749227Y-871176D01*
G01X-746803Y-869661D01*
G01X-745742Y-868903D01*
G01X-744682Y-868297D01*
G01X-743167Y-868145D01*
G01X-741652Y-868752D01*
G01X-740288Y-869964D01*
G01X-739379Y-871479D01*
G01X-738773Y-872842D01*
G01X-738470Y-887691D01*
G01X-738318Y-903297D01*
G01X-737864Y-905721D01*
G01X-737258Y-907236D01*
G01X-736651Y-908145D01*
G01X-735894Y-908903D01*
G01X-734985Y-909509D01*
G01X-733773Y-910115D01*
G01X-732409Y-910873D01*
G01X-731500Y-911933D01*
G01X-731348Y-913600D01*
G01X-731803Y-915115D01*
G01X-732409Y-916024D01*
G01X-733470Y-916782D01*
G01X-734682Y-917236D01*
G01X-735894Y-917388D01*
G01X-737409Y-917539D01*
G37*
G36*
G01X-748773Y-861024D02*
G01X-750894Y-860873D01*
G01X-751652Y-860418D01*
G01X-752561Y-859964D01*
G01X-753318Y-859358D01*
G01X-755136Y-857539D01*
G01X-756046Y-856176D01*
G01X-756652Y-854964D01*
G01X-756955Y-853145D01*
G01X-756652Y-851024D01*
G01X-755894Y-849358D01*
G01X-755136Y-848145D01*
G01X-753318Y-845721D01*
G01X-752258Y-844812D01*
G01X-751046Y-844054D01*
G01X-749682Y-843600D01*
G01X-747409Y-843600D01*
G01X-745439Y-844054D01*
G01X-744076Y-844661D01*
G01X-743015Y-845267D01*
G01X-742258Y-845721D01*
G01X-741500Y-846327D01*
G01X-740742Y-847085D01*
G01X-739985Y-847994D01*
G01X-739227Y-849358D01*
G01X-738621Y-851176D01*
G01X-738621Y-853297D01*
G01X-739076Y-855267D01*
G01X-739833Y-856782D01*
G01X-740591Y-857842D01*
G01X-741348Y-858600D01*
G01X-742258Y-859206D01*
G01X-744076Y-860115D01*
G01X-745288Y-860570D01*
G01X-746500Y-860873D01*
G01X-748773Y-861024D01*
G37*
G36*
G01X-699682Y-918903D02*
G01X-703470Y-918751D01*
G01X-704985Y-918448D01*
G01X-706803Y-918145D01*
G01X-708318Y-917842D01*
G01X-709682Y-917539D01*
G01X-711500Y-917085D01*
G01X-713166Y-916479D01*
G01X-714682Y-915873D01*
G01X-718621Y-913903D01*
G01X-719682Y-913145D01*
G01X-720439Y-912691D01*
G01X-721197Y-912085D01*
G01X-724227Y-909054D01*
G01X-724833Y-908297D01*
G01X-725439Y-907388D01*
G01X-726197Y-906176D01*
G01X-726954Y-904661D01*
G01X-727560Y-903145D01*
G01X-728015Y-901630D01*
G01X-728318Y-900267D01*
G01X-728470Y-896782D01*
G01X-728318Y-892691D01*
G01X-728015Y-890570D01*
G01X-727560Y-888448D01*
G01X-726954Y-886479D01*
G01X-726348Y-884964D01*
G01X-726146Y-884509D01*
G01X-714833Y-884509D01*
G01X-714682Y-887842D01*
G01X-714227Y-890115D01*
G01X-713621Y-891933D01*
G01X-713015Y-893297D01*
G01X-711803Y-895721D01*
G01X-711197Y-896782D01*
G01X-710439Y-897994D01*
G01X-709682Y-899055D01*
G01X-709076Y-899812D01*
G01X-708470Y-900721D01*
G01X-707712Y-901630D01*
G01X-705894Y-903751D01*
G01X-701348Y-908297D01*
G01X-700591Y-908903D01*
G01X-699530Y-909661D01*
G01X-698318Y-910418D01*
G01X-697257Y-910721D01*
G01X-697257Y-910721D01*
G01X-696348Y-910873D01*
G01X-695136Y-910721D01*
G01X-693621Y-909964D01*
G01X-692560Y-909206D01*
G01X-690288Y-906933D01*
G01X-689682Y-906024D01*
G01X-689379Y-902691D01*
G01X-689530Y-899055D01*
G01X-689833Y-897539D01*
G01X-690136Y-896327D01*
G01X-690439Y-894964D01*
G01X-690894Y-893145D01*
G01X-692106Y-889509D01*
G01X-692712Y-887842D01*
G01X-693318Y-886327D01*
G01X-695136Y-882691D01*
G01X-695742Y-881630D01*
G01X-696348Y-880721D01*
G01X-698167Y-878449D01*
G01X-698924Y-877691D01*
G01X-699833Y-877085D01*
G01X-701651Y-876176D01*
G01X-703773Y-875873D01*
G01X-706803Y-876024D01*
G01X-708924Y-876479D01*
G01X-710288Y-877085D01*
G01X-711348Y-877691D01*
G01X-712257Y-878297D01*
G01X-713015Y-879055D01*
G01X-713621Y-879812D01*
G01X-714076Y-880721D01*
G01X-714530Y-881933D01*
G01X-714833Y-884509D01*
G01X-726146Y-884509D01*
G01X-725742Y-883600D01*
G01X-724985Y-882085D01*
G01X-724076Y-880570D01*
G01X-723318Y-879509D01*
G01X-721500Y-877236D01*
G01X-717712Y-873449D01*
G01X-716954Y-872842D01*
G01X-715894Y-872085D01*
G01X-714530Y-871176D01*
G01X-713318Y-870418D01*
G01X-712106Y-869812D01*
G01X-710591Y-869206D01*
G01X-709227Y-868752D01*
G01X-702712Y-868600D01*
G01X-695288Y-868752D01*
G01X-693015Y-869206D01*
G01X-691197Y-869812D01*
G01X-689833Y-870418D01*
G01X-687106Y-871782D01*
G01X-685591Y-872691D01*
G01X-684076Y-873752D01*
G01X-682864Y-874509D01*
G01X-682106Y-875115D01*
G01X-681348Y-875873D01*
G01X-679833Y-877085D01*
G01X-677561Y-879358D01*
G01X-676651Y-880570D01*
G01X-675742Y-881933D01*
G01X-675136Y-882994D01*
G01X-674530Y-884358D01*
G01X-674076Y-885721D01*
G01X-673924Y-891479D01*
G01X-674076Y-897842D01*
G01X-674379Y-899358D01*
G01X-674682Y-900570D01*
G01X-675136Y-901933D01*
G01X-675742Y-903297D01*
G01X-676348Y-904509D01*
G01X-677106Y-905721D01*
G01X-677864Y-906782D01*
G01X-678470Y-907691D01*
G01X-679227Y-908600D01*
G01X-681500Y-910873D01*
G01X-683015Y-912085D01*
G01X-684076Y-912994D01*
G01X-685136Y-913751D01*
G01X-686954Y-914964D01*
G01X-689076Y-916176D01*
G01X-689985Y-916630D01*
G01X-692106Y-917539D01*
G01X-693318Y-917994D01*
G01X-694833Y-918448D01*
G01X-696197Y-918751D01*
G01X-699682Y-918903D01*
G37*
G36*
G01X-564076Y-920115D02*
G01X-565742Y-919812D01*
G01X-567409Y-919054D01*
G01X-568924Y-917994D01*
G01X-570136Y-917236D01*
G01X-571197Y-916782D01*
G01X-584530Y-916479D01*
G01X-597712Y-916630D01*
G01X-599833Y-916933D01*
G01X-602257Y-917236D01*
G01X-605591Y-917539D01*
G01X-608621Y-917691D01*
G01X-612560Y-917539D01*
G01X-614682Y-917085D01*
G01X-616045Y-916327D01*
G01X-617106Y-915115D01*
G01X-617409Y-914320D01*
G01X-617409Y-913448D01*
G01X-616803Y-912236D01*
G01X-616045Y-911479D01*
G01X-614985Y-910721D01*
G01X-613772Y-910115D01*
G01X-612863Y-909509D01*
G01X-612106Y-908751D01*
G01X-611500Y-907691D01*
G01X-611197Y-906479D01*
G01X-611348Y-904509D01*
G01X-611803Y-902236D01*
G01X-613015Y-898297D01*
G01X-613469Y-896933D01*
G01X-613621Y-895721D01*
G01X-613469Y-893903D01*
G01X-613015Y-891782D01*
G01X-612560Y-890267D01*
G01X-612409Y-888448D01*
G01X-612560Y-886630D01*
G01X-612863Y-869964D01*
G01X-613166Y-856327D01*
G01X-613469Y-855115D01*
G01X-614076Y-854055D01*
G01X-614833Y-853297D01*
G01X-615894Y-852388D01*
G01X-617257Y-851479D01*
G01X-618469Y-850721D01*
G01X-619379Y-849812D01*
G01X-619530Y-848448D01*
G01X-619076Y-847085D01*
G01X-618469Y-846176D01*
G01X-617863Y-845570D01*
G01X-616803Y-844964D01*
G01X-615591Y-844509D01*
G01X-613469Y-844206D01*
G01X-612106Y-844054D01*
G01X-610742Y-844206D01*
G01X-609227Y-844358D01*
G01X-607409Y-844509D01*
G01X-605288Y-844812D01*
G01X-603469Y-845115D01*
G01X-602106Y-844964D01*
G01X-600742Y-844509D01*
G01X-598621Y-844206D01*
G01X-597409Y-844054D01*
G01X-595894Y-844206D01*
G01X-594379Y-844661D01*
G01X-593318Y-845267D01*
G01X-592712Y-846024D01*
G01X-592409Y-847085D01*
G01X-592560Y-848145D01*
G01X-593015Y-849358D01*
G01X-593773Y-850418D01*
G01X-594682Y-851024D01*
G01X-595894Y-851630D01*
G01X-596954Y-852388D01*
G01X-597560Y-853449D01*
G01X-597863Y-856024D01*
G01X-597712Y-858449D01*
G01X-597409Y-861479D01*
G01X-597106Y-864206D01*
G01X-596803Y-867539D01*
G01X-596197Y-874812D01*
G01X-595894Y-881782D01*
G01X-595742Y-886479D01*
G01X-595894Y-891176D01*
G01X-596045Y-894358D01*
G01X-595894Y-898145D01*
G01X-595591Y-899661D01*
G01X-595288Y-900873D01*
G01X-594833Y-902085D01*
G01X-593621Y-904509D01*
G01X-592863Y-905721D01*
G01X-591954Y-906782D01*
G01X-591045Y-907388D01*
G01X-590136Y-907842D01*
G01X-589227Y-908145D01*
G01X-584227Y-908297D01*
G01X-579227Y-908145D01*
G01X-578015Y-907994D01*
G01X-576197Y-907691D01*
G01X-574682Y-907236D01*
G01X-573621Y-906933D01*
G01X-572560Y-906479D01*
G01X-570136Y-905267D01*
G01X-569076Y-904661D01*
G01X-567712Y-903751D01*
G01X-566197Y-902539D01*
G01X-564985Y-901630D01*
G01X-564227Y-901024D01*
G01X-563167Y-900115D01*
G01X-561954Y-899206D01*
G01X-561197Y-898448D01*
G01X-559076Y-896630D01*
G01X-557561Y-895418D01*
G01X-556500Y-894509D01*
G01X-554985Y-893600D01*
G01X-553470Y-893297D01*
G01X-552106Y-893903D01*
G01X-551197Y-894812D01*
G01X-550894Y-896024D01*
G01X-551045Y-897842D01*
G01X-551500Y-899358D01*
G01X-552864Y-902085D01*
G01X-553773Y-903600D01*
G01X-554682Y-904964D01*
G01X-555439Y-906327D01*
G01X-556045Y-907539D01*
G01X-556651Y-908903D01*
G01X-557864Y-912539D01*
G01X-558470Y-914054D01*
G01X-559682Y-916782D01*
G01X-560288Y-917691D01*
G01X-560894Y-918448D01*
G01X-561651Y-919206D01*
G01X-562712Y-919812D01*
G01X-564076Y-920115D01*
G37*
G36*
G01X25319Y-918903D02*
G01X21682Y-918751D01*
G01X18046Y-918145D01*
G01X16531Y-917842D01*
G01X14561Y-917388D01*
G01X10925Y-916176D01*
G01X9561Y-915570D01*
G01X7137Y-914357D01*
G01X5925Y-913600D01*
G01X4864Y-912842D01*
G01X4107Y-912388D01*
G01X3349Y-911782D01*
G01X1076Y-909509D01*
G01X-136Y-907994D01*
G01X-894Y-906933D01*
G01X-2409Y-903903D01*
G01X-2863Y-902691D01*
G01X-3469Y-899661D01*
G01X-3621Y-896327D01*
G01X-3469Y-892994D01*
G01X-3166Y-890873D01*
G01X-2863Y-889509D01*
G01X-2409Y-887691D01*
G01X-1803Y-885873D01*
G01X-1466Y-885115D01*
G01X10016Y-885115D01*
G01X10167Y-887842D01*
G01X10470Y-889358D01*
G01X10925Y-891024D01*
G01X11379Y-892236D01*
G01X11834Y-893297D01*
G01X13046Y-895721D01*
G01X13804Y-896933D01*
G01X14713Y-898297D01*
G01X15470Y-899358D01*
G01X16076Y-900115D01*
G01X16834Y-901176D01*
G01X17743Y-902236D01*
G01X18955Y-903751D01*
G01X22743Y-907539D01*
G01X24258Y-908751D01*
G01X25319Y-909661D01*
G01X26531Y-910418D01*
G01X27591Y-910721D01*
G01X27591Y-910721D01*
G01X28349Y-910873D01*
G01X29258Y-910873D01*
G01X30773Y-910267D01*
G01X31834Y-909509D01*
G01X32591Y-909054D01*
G01X33349Y-908448D01*
G01X35167Y-906176D01*
G01X35470Y-902842D01*
G01X35319Y-898751D01*
G01X35016Y-897236D01*
G01X34713Y-895873D01*
G01X34258Y-894055D01*
G01X33804Y-892691D01*
G01X33501Y-891479D01*
G01X33046Y-890115D01*
G01X32440Y-888600D01*
G01X31834Y-886933D01*
G01X30622Y-884206D01*
G01X29864Y-882691D01*
G01X28955Y-881327D01*
G01X28198Y-880267D01*
G01X26985Y-878752D01*
G01X25925Y-877691D01*
G01X24561Y-876782D01*
G01X23349Y-876176D01*
G01X20773Y-875873D01*
G01X18046Y-876024D01*
G01X15622Y-876630D01*
G01X14258Y-877236D01*
G01X12894Y-878145D01*
G01X11834Y-879055D01*
G01X11228Y-879964D01*
G01X10622Y-881176D01*
G01X10167Y-882388D01*
G01X10016Y-885115D01*
G01X-1466Y-885115D01*
G01X-1197Y-884509D01*
G01X-287Y-882388D01*
G01X470Y-881176D01*
G01X1379Y-879812D01*
G01X2137Y-878752D01*
G01X3349Y-877236D01*
G01X6379Y-874206D01*
G01X7894Y-872994D01*
G01X8955Y-872085D01*
G01X10016Y-871327D01*
G01X11076Y-870721D01*
G01X12591Y-869964D01*
G01X14258Y-869206D01*
G01X15622Y-868752D01*
G01X22288Y-868600D01*
G01X29561Y-868752D01*
G01X31076Y-869055D01*
G01X32288Y-869358D01*
G01X33652Y-869812D01*
G01X35016Y-870418D01*
G01X37440Y-871630D01*
G01X38804Y-872388D01*
G01X40167Y-873297D01*
G01X41228Y-874055D01*
G01X41985Y-874509D01*
G01X44258Y-876327D01*
G01X47591Y-879661D01*
G01X48652Y-881176D01*
G01X49561Y-882691D01*
G01X50319Y-884206D01*
G01X50773Y-885418D01*
G01X51076Y-887539D01*
G01X51228Y-891327D01*
G01X51076Y-895115D01*
G01X50925Y-896479D01*
G01X50773Y-898145D01*
G01X50470Y-899661D01*
G01X50016Y-901327D01*
G01X49410Y-902691D01*
G01X48046Y-905418D01*
G01X46985Y-906933D01*
G01X46076Y-908145D01*
G01X43046Y-911176D01*
G01X41531Y-912388D01*
G01X40470Y-913297D01*
G01X39107Y-914206D01*
G01X36682Y-915721D01*
G01X35319Y-916479D01*
G01X33955Y-917085D01*
G01X32440Y-917691D01*
G01X30470Y-918297D01*
G01X28955Y-918751D01*
G01X25319Y-918903D01*
G37*
G36*
G01X279258Y-917842D02*
G01X278046Y-917842D01*
G01X276985Y-917388D01*
G01X276076Y-916782D01*
G01X275470Y-916024D01*
G01X275167Y-914661D01*
G01X275319Y-912842D01*
G01X275622Y-912009D01*
G01X276228Y-911327D01*
G01X277591Y-910418D01*
G01X280773Y-908600D01*
G01X281682Y-908145D01*
G01X282440Y-907539D01*
G01X283198Y-906782D01*
G01X283955Y-905721D01*
G01X284410Y-904509D01*
G01X284561Y-901327D01*
G01X284410Y-898145D01*
G01X284107Y-896024D01*
G01X283804Y-894509D01*
G01X283501Y-892691D01*
G01X283198Y-890570D01*
G01X283198Y-888448D01*
G01X283652Y-886782D01*
G01X284107Y-885418D01*
G01X284410Y-884055D01*
G01X284864Y-882085D01*
G01X285319Y-880570D01*
G01X285925Y-876933D01*
G01X286228Y-874206D01*
G01X286379Y-871630D01*
G01X286228Y-868449D01*
G01X285773Y-866630D01*
G01X284864Y-865115D01*
G01X283652Y-864055D01*
G01X281985Y-863449D01*
G01X280470Y-862994D01*
G01X279107Y-862691D01*
G01X277743Y-862236D01*
G01X276834Y-861782D01*
G01X276076Y-860873D01*
G01X275925Y-859358D01*
G01X276531Y-857842D01*
G01X277440Y-856782D01*
G01X278198Y-856176D01*
G01X279107Y-855721D01*
G01X280319Y-855267D01*
G01X283198Y-854964D01*
G01X285925Y-855115D01*
G01X288804Y-855267D01*
G01X291985Y-855115D01*
G01X293652Y-854661D01*
G01X295167Y-854055D01*
G01X296531Y-853600D01*
G01X298955Y-852691D01*
G01X300470Y-852388D01*
G01X301985Y-852388D01*
G01X303501Y-852691D01*
G01X305016Y-853145D01*
G01X306379Y-854206D01*
G01X307137Y-855570D01*
G01X307440Y-856630D01*
G01X307440Y-857842D01*
G01X306985Y-858903D01*
G01X306379Y-859661D01*
G01X305319Y-860418D01*
G01X302894Y-861630D01*
G01X301531Y-862691D01*
G01X300773Y-864206D01*
G01X300470Y-865418D01*
G01X300319Y-871933D01*
G01X300622Y-878297D01*
G01X300925Y-879358D01*
G01X300773Y-880570D01*
G01X300167Y-883297D01*
G01X299864Y-897236D01*
G01X299561Y-898751D01*
G01X299107Y-900267D01*
G01X298804Y-902236D01*
G01X299107Y-904206D01*
G01X299713Y-905418D01*
G01X300319Y-906479D01*
G01X300925Y-907236D01*
G01X302440Y-908751D01*
G01X303955Y-909964D01*
G01X306228Y-912236D01*
G01X306682Y-913297D01*
G01X306531Y-914509D01*
G01X306076Y-915418D01*
G01X305319Y-916176D01*
G01X304410Y-916782D01*
G01X303046Y-917236D01*
G01X301682Y-917539D01*
G01X297743Y-917842D01*
G01X296834Y-917842D01*
G01X295167Y-917691D01*
G01X292894Y-917388D01*
G01X291379Y-916933D01*
G01X287743Y-916479D01*
G01X286531Y-916630D01*
G01X285470Y-916782D01*
G01X284107Y-916933D01*
G01X282895Y-917236D01*
G01X281228Y-917539D01*
G01X279258Y-917842D01*
G37*
G36*
G01X360167Y-918145D02*
G01X359258Y-918145D01*
G01X358198Y-917994D01*
G01X356531Y-917842D01*
G01X355016Y-917539D01*
G01X353349Y-917085D01*
G01X351986Y-916479D01*
G01X350773Y-915873D01*
G01X349713Y-915267D01*
G01X348804Y-914661D01*
G01X347895Y-913903D01*
G01X344864Y-910873D01*
G01X343955Y-909661D01*
G01X343198Y-908448D01*
G01X342592Y-907691D01*
G01X340319Y-905418D01*
G01X339258Y-904509D01*
G01X338046Y-903297D01*
G01X337137Y-901933D01*
G01X336380Y-900570D01*
G01X335925Y-899358D01*
G01X335319Y-896630D01*
G01X335201Y-895570D01*
G01X351834Y-895570D01*
G01X351986Y-898751D01*
G01X352289Y-900570D01*
G01X352743Y-902236D01*
G01X353349Y-903600D01*
G01X353955Y-904812D01*
G01X354561Y-905873D01*
G01X355622Y-907085D01*
G01X356986Y-907994D01*
G01X358046Y-908600D01*
G01X359107Y-908903D01*
G01X359107Y-908903D01*
G01X359864Y-909054D01*
G01X361379Y-909206D01*
G01X363804Y-909054D01*
G01X365319Y-908600D01*
G01X366228Y-908145D01*
G01X367289Y-907236D01*
G01X368349Y-905721D01*
G01X369107Y-904358D01*
G01X370016Y-901933D01*
G01X370470Y-900267D01*
G01X370773Y-898751D01*
G01X370925Y-896176D01*
G01X370773Y-893600D01*
G01X370470Y-890267D01*
G01X370167Y-886024D01*
G01X369864Y-878449D01*
G01X369713Y-877388D01*
G01X369561Y-876024D01*
G01X369258Y-874509D01*
G01X368804Y-872842D01*
G01X368198Y-871479D01*
G01X367592Y-870267D01*
G01X366834Y-868903D01*
G01X366076Y-867842D01*
G01X365319Y-866933D01*
G01X364107Y-865873D01*
G01X362743Y-865115D01*
G01X361683Y-864812D01*
G01X360470Y-864661D01*
G01X358652Y-864812D01*
G01X356834Y-865267D01*
G01X355319Y-866024D01*
G01X354258Y-867085D01*
G01X353652Y-868145D01*
G01X353198Y-869661D01*
G01X352895Y-871176D01*
G01X352592Y-874812D01*
G01X352440Y-877842D01*
G01X352592Y-880873D01*
G01X352895Y-884206D01*
G01X352895Y-884964D01*
G01X352743Y-885873D01*
G01X352592Y-887842D01*
G01X352289Y-889661D01*
G01X351986Y-892691D01*
G01X351834Y-895570D01*
G01X335201Y-895570D01*
G01X335016Y-893903D01*
G01X334864Y-885721D01*
G01X335016Y-877236D01*
G01X335319Y-875721D01*
G01X335773Y-874055D01*
G01X336380Y-872388D01*
G01X337137Y-870873D01*
G01X338046Y-869509D01*
G01X338652Y-868449D01*
G01X340470Y-866176D01*
G01X342289Y-864358D01*
G01X343804Y-863146D01*
G01X345319Y-862085D01*
G01X346531Y-861327D01*
G01X349561Y-859812D01*
G01X351228Y-859206D01*
G01X352592Y-858752D01*
G01X355622Y-858146D01*
G01X358349Y-857842D01*
G01X360773Y-857691D01*
G01X363198Y-857842D01*
G01X365319Y-858146D01*
G01X366834Y-858449D01*
G01X368804Y-858903D01*
G01X370470Y-859509D01*
G01X374410Y-861479D01*
G01X375470Y-862236D01*
G01X376379Y-862842D01*
G01X377289Y-863600D01*
G01X380622Y-866933D01*
G01X382440Y-869358D01*
G01X383349Y-870873D01*
G01X384561Y-872994D01*
G01X385167Y-874509D01*
G01X385773Y-875873D01*
G01X386228Y-877388D01*
G01X386531Y-878752D01*
G01X386682Y-886933D01*
G01X386531Y-896024D01*
G01X386228Y-898145D01*
G01X385925Y-899661D01*
G01X385470Y-901327D01*
G01X384864Y-902691D01*
G01X384258Y-903903D01*
G01X383501Y-905267D01*
G01X382743Y-906327D01*
G01X381531Y-907842D01*
G01X378501Y-910873D01*
G01X377440Y-911782D01*
G01X376379Y-912539D01*
G01X374561Y-913751D01*
G01X373501Y-914357D01*
G01X371076Y-915570D01*
G01X369713Y-916176D01*
G01X366986Y-917085D01*
G01X365319Y-917539D01*
G01X363804Y-917842D01*
G01X362137Y-917994D01*
G01X360167Y-918145D01*
G37*
G36*
G01X76076Y-918600D02*
G01X72591Y-918297D01*
G01X70925Y-917691D01*
G01X69561Y-917085D01*
G01X67440Y-916024D01*
G01X66682Y-915418D01*
G01X64864Y-913600D01*
G01X64107Y-912388D01*
G01X63500Y-911630D01*
G01X62743Y-910570D01*
G01X62137Y-909206D01*
G01X61531Y-907539D01*
G01X61076Y-906024D01*
G01X60925Y-904964D01*
G01X60773Y-903297D01*
G01X60773Y-901479D01*
G01X61076Y-899358D01*
G01X61379Y-897539D01*
G01X61531Y-895570D01*
G01X61379Y-892994D01*
G01X60925Y-891327D01*
G01X60622Y-889509D01*
G01X60773Y-887842D01*
G01X60925Y-885873D01*
G01X60773Y-883903D01*
G01X60167Y-882691D01*
G01X59107Y-881630D01*
G01X58046Y-881024D01*
G01X56834Y-880418D01*
G01X55470Y-879812D01*
G01X54107Y-879055D01*
G01X53538Y-878562D01*
G01X53349Y-877994D01*
G01X53652Y-876933D01*
G01X54410Y-875721D01*
G01X55319Y-874812D01*
G01X56076Y-874206D01*
G01X57137Y-873297D01*
G01X58652Y-872388D01*
G01X59864Y-871630D01*
G01X61076Y-871024D01*
G01X62137Y-870418D01*
G01X63046Y-869964D01*
G01X64107Y-869509D01*
G01X65319Y-868903D01*
G01X66834Y-868297D01*
G01X68500Y-867691D01*
G01X69864Y-867236D01*
G01X71531Y-867085D01*
G01X73500Y-867388D01*
G01X74561Y-867994D01*
G01X75319Y-868600D01*
G01X76076Y-869509D01*
G01X76531Y-870570D01*
G01X76682Y-872691D01*
G01X76531Y-874812D01*
G01X75925Y-880267D01*
G01X75622Y-883297D01*
G01X75319Y-886933D01*
G01X75016Y-893297D01*
G01X75016Y-894055D01*
G01X75167Y-896176D01*
G01X75319Y-898751D01*
G01X75622Y-900570D01*
G01X76076Y-902539D01*
G01X76682Y-904358D01*
G01X77288Y-905721D01*
G01X77894Y-906782D01*
G01X78652Y-907691D01*
G01X79561Y-908297D01*
G01X80773Y-908600D01*
G01X82894Y-908448D01*
G01X85319Y-907994D01*
G01X87288Y-907388D01*
G01X88955Y-906782D01*
G01X90016Y-906176D01*
G01X90773Y-905721D01*
G01X91682Y-904812D01*
G01X92288Y-903600D01*
G01X92591Y-900873D01*
G01X92894Y-892994D01*
G01X93046Y-887842D01*
G01X92894Y-881782D01*
G01X92440Y-879812D01*
G01X91985Y-878752D01*
G01X91076Y-877691D01*
G01X89561Y-876630D01*
G01X88500Y-875721D01*
G01X87894Y-874812D01*
G01X87591Y-873752D01*
G01X87894Y-872539D01*
G01X88652Y-871630D01*
G01X89561Y-871024D01*
G01X91076Y-870570D01*
G01X92591Y-870267D01*
G01X96834Y-869964D01*
G01X100470Y-869661D01*
G01X104107Y-869055D01*
G01X107440Y-868752D01*
G01X108501Y-868752D01*
G01X109864Y-869055D01*
G01X111379Y-869661D01*
G01X111947Y-870229D01*
G01X112137Y-871024D01*
G01X111834Y-872539D01*
G01X110925Y-873449D01*
G01X109713Y-874055D01*
G01X108804Y-874661D01*
G01X108046Y-875721D01*
G01X107440Y-877236D01*
G01X107137Y-878449D01*
G01X106834Y-880570D01*
G01X106682Y-889509D01*
G01X106834Y-899358D01*
G01X107137Y-901176D01*
G01X107440Y-902539D01*
G01X107894Y-904054D01*
G01X108501Y-905570D01*
G01X109410Y-907236D01*
G01X110319Y-908448D01*
G01X110925Y-909206D01*
G01X111379Y-910115D01*
G01X111228Y-911479D01*
G01X110167Y-912842D01*
G01X108804Y-913751D01*
G01X107288Y-914357D01*
G01X103349Y-915570D01*
G01X101985Y-916024D01*
G01X100773Y-916327D01*
G01X99409Y-916782D01*
G01X97894Y-917388D01*
G01X96531Y-917994D01*
G01X95319Y-918297D01*
G01X93803Y-918145D01*
G01X92591Y-917691D01*
G01X91379Y-917085D01*
G01X90016Y-916327D01*
G01X88803Y-915873D01*
G01X87743Y-916024D01*
G01X86531Y-916327D01*
G01X85167Y-916782D01*
G01X82137Y-917691D01*
G01X80470Y-918145D01*
G01X78955Y-918448D01*
G01X76076Y-918600D01*
G37*
G36*
G01X241228Y-918903D02*
G01X239258Y-918600D01*
G01X238198Y-917842D01*
G01X236076Y-916024D01*
G01X234258Y-913751D01*
G01X233501Y-912691D01*
G01X232592Y-911327D01*
G01X231076Y-908903D01*
G01X228804Y-904812D01*
G01X227592Y-902085D01*
G01X226986Y-900873D01*
G01X226076Y-898751D01*
G01X225470Y-897388D01*
G01X224864Y-895873D01*
G01X224410Y-894661D01*
G01X223804Y-893297D01*
G01X223046Y-892085D01*
G01X220016Y-886782D01*
G01X219258Y-885418D01*
G01X218349Y-883903D01*
G01X217592Y-882691D01*
G01X216985Y-881630D01*
G01X216379Y-880721D01*
G01X215773Y-879661D01*
G01X215016Y-878600D01*
G01X214258Y-877994D01*
G01X213198Y-877388D01*
G01X211834Y-876782D01*
G01X210622Y-876327D01*
G01X209258Y-875721D01*
G01X208046Y-874509D01*
G01X207743Y-873145D01*
G01X208046Y-871782D01*
G01X208652Y-870267D01*
G01X209864Y-868903D01*
G01X211682Y-868145D01*
G01X213652Y-868297D01*
G01X215016Y-868752D01*
G01X218046Y-869358D01*
G01X221682Y-869661D01*
G01X223198Y-869812D01*
G01X224713Y-869661D01*
G01X225925Y-869509D01*
G01X227743Y-869206D01*
G01X229258Y-868752D01*
G01X230925Y-868449D01*
G01X233198Y-868449D01*
G01X235016Y-868903D01*
G01X236076Y-869812D01*
G01X236228Y-870873D01*
G01X235925Y-871933D01*
G01X235319Y-872842D01*
G01X233804Y-874358D01*
G01X233046Y-875267D01*
G01X232440Y-876327D01*
G01X232137Y-878145D01*
G01X232440Y-880115D01*
G01X233046Y-881479D01*
G01X235470Y-886327D01*
G01X236683Y-888448D01*
G01X237440Y-889964D01*
G01X238349Y-891479D01*
G01X239864Y-893903D01*
G01X240622Y-894964D01*
G01X241834Y-896479D01*
G01X242440Y-897085D01*
G01X243501Y-897539D01*
G01X244182Y-897464D01*
G01X244713Y-896933D01*
G01X245622Y-895570D01*
G01X247895Y-891479D01*
G01X249713Y-887842D01*
G01X250925Y-885115D01*
G01X251379Y-883903D01*
G01X251834Y-882539D01*
G01X251985Y-880570D01*
G01X251531Y-878752D01*
G01X250925Y-877842D01*
G01X249864Y-876782D01*
G01X248652Y-876024D01*
G01X247592Y-875115D01*
G01X246834Y-873752D01*
G01X246834Y-872388D01*
G01X247592Y-870873D01*
G01X248955Y-869812D01*
G01X250167Y-869358D01*
G01X252440Y-869206D01*
G01X254713Y-869358D01*
G01X258349Y-869964D01*
G01X264107Y-870115D01*
G01X270167Y-870267D01*
G01X271531Y-870721D01*
G01X271985Y-871289D01*
G01X272137Y-872388D01*
G01X271834Y-874206D01*
G01X271228Y-875115D01*
G01X270167Y-875873D01*
G01X266531Y-877691D01*
G01X265470Y-878297D01*
G01X264258Y-879055D01*
G01X263198Y-879661D01*
G01X262440Y-880267D01*
G01X261682Y-881024D01*
G01X260773Y-882085D01*
G01X259864Y-883448D01*
G01X259107Y-884812D01*
G01X258501Y-886024D01*
G01X257895Y-887388D01*
G01X257289Y-888903D01*
G01X256682Y-890267D01*
G01X256076Y-891782D01*
G01X254864Y-894509D01*
G01X254258Y-896024D01*
G01X253652Y-897236D01*
G01X252440Y-899964D01*
G01X251834Y-901176D01*
G01X251228Y-902691D01*
G01X250016Y-905418D01*
G01X248198Y-909964D01*
G01X247592Y-911327D01*
G01X247137Y-912539D01*
G01X246682Y-913600D01*
G01X245470Y-916024D01*
G01X244864Y-916933D01*
G01X244258Y-917691D01*
G01X243198Y-918448D01*
G01X241228Y-918903D01*
G37*
G36*
G01X138198Y-918903D02*
G01X136531Y-918751D01*
G01X134864Y-918297D01*
G01X133349Y-917691D01*
G01X131228Y-916479D01*
G01X130319Y-915721D01*
G01X128804Y-914206D01*
G01X128198Y-913448D01*
G01X126985Y-911630D01*
G01X126531Y-910721D01*
G01X126076Y-909509D01*
G01X125773Y-907236D01*
G01X125925Y-905115D01*
G01X126076Y-902691D01*
G01X125925Y-900267D01*
G01X125622Y-895721D01*
G01X125470Y-892842D01*
G01X125622Y-889964D01*
G01X125925Y-887236D01*
G01X126228Y-885115D01*
G01X126379Y-883297D01*
G01X125925Y-881176D01*
G01X124713Y-879964D01*
G01X123349Y-879509D01*
G01X120167Y-879055D01*
G01X118804Y-878752D01*
G01X117288Y-877994D01*
G01X116531Y-876630D01*
G01X116531Y-875418D01*
G01X116834Y-874206D01*
G01X117440Y-873145D01*
G01X118198Y-872388D01*
G01X119107Y-871630D01*
G01X120167Y-871024D01*
G01X122895Y-869812D01*
G01X123955Y-869206D01*
G01X124864Y-868600D01*
G01X125622Y-867994D01*
G01X126682Y-866933D01*
G01X127440Y-865570D01*
G01X127895Y-864358D01*
G01X128501Y-862842D01*
G01X129561Y-859661D01*
G01X129864Y-858449D01*
G01X131228Y-854358D01*
G01X131834Y-852842D01*
G01X132440Y-851479D01*
G01X133198Y-850267D01*
G01X134410Y-849055D01*
G01X135091Y-848789D01*
G01X135622Y-848903D01*
G01X136531Y-849509D01*
G01X137288Y-850570D01*
G01X137743Y-851782D01*
G01X138046Y-859661D01*
G01X138198Y-861024D01*
G01X138349Y-863297D01*
G01X138804Y-865570D01*
G01X139561Y-867236D01*
G01X140470Y-868297D01*
G01X141531Y-868903D01*
G01X144864Y-869206D01*
G01X148046Y-868903D01*
G01X149258Y-868752D01*
G01X149826Y-869092D01*
G01X150016Y-869812D01*
G01X149713Y-871327D01*
G01X149107Y-872842D01*
G01X148501Y-874661D01*
G01X147895Y-876176D01*
G01X147440Y-877388D01*
G01X147175Y-877880D01*
G01X146682Y-878145D01*
G01X145622Y-878449D01*
G01X144410Y-878600D01*
G01X143046Y-878903D01*
G01X141834Y-879358D01*
G01X140925Y-879964D01*
G01X140319Y-880873D01*
G01X139864Y-882085D01*
G01X139561Y-883297D01*
G01X139410Y-884358D01*
G01X139561Y-885418D01*
G01X139864Y-887842D01*
G01X139864Y-889055D01*
G01X139561Y-890267D01*
G01X139258Y-892994D01*
G01X139107Y-896933D01*
G01X139258Y-900873D01*
G01X139561Y-902388D01*
G01X140016Y-904206D01*
G01X140622Y-905418D01*
G01X141228Y-906327D01*
G01X141985Y-907085D01*
G01X143046Y-907691D01*
G01X144713Y-907994D01*
G01X146531Y-907842D01*
G01X147743Y-907388D01*
G01X148652Y-906782D01*
G01X149713Y-906024D01*
G01X150357Y-905721D01*
G01X151076Y-905721D01*
G01X151758Y-906024D01*
G01X152288Y-906630D01*
G01X152743Y-908145D01*
G01X152440Y-909964D01*
G01X151834Y-911479D01*
G01X151379Y-912388D01*
G01X150773Y-913145D01*
G01X150016Y-913903D01*
G01X148955Y-914812D01*
G01X147591Y-915721D01*
G01X146228Y-916479D01*
G01X144864Y-917085D01*
G01X142440Y-917994D01*
G01X140925Y-918448D01*
G01X139561Y-918751D01*
G01X138198Y-918903D01*
G37*
G36*
G01X320925Y-916782D02*
G01X318804Y-916630D01*
G01X318046Y-916176D01*
G01X316985Y-915570D01*
G01X315773Y-914509D01*
G01X314713Y-912994D01*
G01X313955Y-911630D01*
G01X313652Y-910267D01*
G01X313804Y-908751D01*
G01X314258Y-907236D01*
G01X315470Y-905115D01*
G01X316228Y-904054D01*
G01X318046Y-902236D01*
G01X319410Y-901479D01*
G01X320470Y-901176D01*
G01X321531Y-901176D01*
G01X322895Y-901479D01*
G01X324410Y-901933D01*
G01X326531Y-902994D01*
G01X327289Y-903600D01*
G01X328046Y-904358D01*
G01X328804Y-905267D01*
G01X329410Y-906327D01*
G01X329864Y-907539D01*
G01X330167Y-908751D01*
G01X330167Y-909509D01*
G01X329864Y-910873D01*
G01X329410Y-912388D01*
G01X328955Y-913297D01*
G01X328349Y-914054D01*
G01X327592Y-914661D01*
G01X326683Y-915267D01*
G01X325622Y-915873D01*
G01X324410Y-916327D01*
G01X323198Y-916630D01*
G01X320925Y-916782D01*
G37*
G36*
G01X-485591Y-919812D02*
G01X-488621Y-919661D01*
G01X-489985Y-919206D01*
G01X-491500Y-918600D01*
G01X-492863Y-917994D01*
G01X-494075Y-917388D01*
G01X-495288Y-916630D01*
G01X-496348Y-915873D01*
G01X-497106Y-915418D01*
G01X-497863Y-914812D01*
G01X-498924Y-913751D01*
G01X-500136Y-912842D01*
G01X-501651Y-911024D01*
G01X-502863Y-909509D01*
G01X-503621Y-908751D01*
G01X-510288Y-900418D01*
G01X-510894Y-899509D01*
G01X-511651Y-898600D01*
G01X-513469Y-896479D01*
G01X-515288Y-894661D01*
G01X-516500Y-893751D01*
G01X-517560Y-892994D01*
G01X-518772Y-892388D01*
G01X-519833Y-892085D01*
G01X-521045Y-892085D01*
G01X-522257Y-892388D01*
G01X-523470Y-892842D01*
G01X-524530Y-893751D01*
G01X-525136Y-894964D01*
G01X-525439Y-898448D01*
G01X-525288Y-902691D01*
G01X-524985Y-904509D01*
G01X-524682Y-905721D01*
G01X-524227Y-906933D01*
G01X-523621Y-908145D01*
G01X-522863Y-909206D01*
G01X-522106Y-909964D01*
G01X-520288Y-911176D01*
G01X-519530Y-911933D01*
G01X-518924Y-912842D01*
G01X-518924Y-914206D01*
G01X-519379Y-915570D01*
G01X-520439Y-916782D01*
G01X-521310Y-917236D01*
G01X-522409Y-917388D01*
G01X-524076Y-917236D01*
G01X-526803Y-916630D01*
G01X-528924Y-916327D01*
G01X-531348Y-916176D01*
G01X-534682Y-916327D01*
G01X-536803Y-916630D01*
G01X-538621Y-916933D01*
G01X-540136Y-917236D01*
G01X-542864Y-917539D01*
G01X-543773Y-917539D01*
G01X-544985Y-917388D01*
G01X-546500Y-917085D01*
G01X-547561Y-916479D01*
G01X-548318Y-915873D01*
G01X-548773Y-914812D01*
G01X-548318Y-913448D01*
G01X-547409Y-912539D01*
G01X-545288Y-911024D01*
G01X-544227Y-909964D01*
G01X-543318Y-908600D01*
G01X-542712Y-907539D01*
G01X-542258Y-906327D01*
G01X-541954Y-905115D01*
G01X-541803Y-896024D01*
G01X-542106Y-887085D01*
G01X-542409Y-873600D01*
G01X-542561Y-859661D01*
G01X-542669Y-858903D01*
G01X-526954Y-858903D01*
G01X-526803Y-860267D01*
G01X-526500Y-862388D01*
G01X-526197Y-864206D01*
G01X-525591Y-867236D01*
G01X-525439Y-869661D01*
G01X-525742Y-874509D01*
G01X-525591Y-877842D01*
G01X-525136Y-879661D01*
G01X-524682Y-880721D01*
G01X-524076Y-881630D01*
G01X-523318Y-882388D01*
G01X-522560Y-882994D01*
G01X-521651Y-883448D01*
G01X-520591Y-883752D01*
G01X-520591Y-883752D01*
G01X-519833Y-883903D01*
G01X-517560Y-884055D01*
G01X-514379Y-883752D01*
G01X-512560Y-883145D01*
G01X-511348Y-882539D01*
G01X-510288Y-881933D01*
G01X-509378Y-881176D01*
G01X-507863Y-879661D01*
G01X-507257Y-878903D01*
G01X-506651Y-877842D01*
G01X-506197Y-876630D01*
G01X-506045Y-872388D01*
G01X-506197Y-867842D01*
G01X-506500Y-865721D01*
G01X-506954Y-863752D01*
G01X-507560Y-862236D01*
G01X-508166Y-860873D01*
G01X-508924Y-859661D01*
G01X-509682Y-858600D01*
G01X-510136Y-857842D01*
G01X-510742Y-857085D01*
G01X-511500Y-856327D01*
G01X-513015Y-855115D01*
G01X-514075Y-854358D01*
G01X-515439Y-853752D01*
G01X-516803Y-853297D01*
G01X-518015Y-852994D01*
G01X-519530Y-852842D01*
G01X-521651Y-852994D01*
G01X-523166Y-853449D01*
G01X-524227Y-854055D01*
G01X-525439Y-855115D01*
G01X-526348Y-856630D01*
G01X-526803Y-857842D01*
G01X-526954Y-858903D01*
G01X-542669Y-858903D01*
G01X-542864Y-857539D01*
G01X-543318Y-855570D01*
G01X-543773Y-854358D01*
G01X-544227Y-853449D01*
G01X-544833Y-852691D01*
G01X-545894Y-851630D01*
G01X-547409Y-850570D01*
G01X-548773Y-849358D01*
G01X-549379Y-847842D01*
G01X-549227Y-846630D01*
G01X-548773Y-845721D01*
G01X-547409Y-844964D01*
G01X-545591Y-844812D01*
G01X-544076Y-845115D01*
G01X-542864Y-845418D01*
G01X-539833Y-845570D01*
G01X-536803Y-845418D01*
G01X-529227Y-845115D01*
G01X-526500Y-844812D01*
G01X-524985Y-844509D01*
G01X-522863Y-844054D01*
G01X-521348Y-843600D01*
G01X-519076Y-843448D01*
G01X-516803Y-843600D01*
G01X-514379Y-843903D01*
G01X-512560Y-844206D01*
G01X-510288Y-844661D01*
G01X-508924Y-845115D01*
G01X-507712Y-845418D01*
G01X-506348Y-845873D01*
G01X-504833Y-846479D01*
G01X-503469Y-847085D01*
G01X-501045Y-848297D01*
G01X-499985Y-848903D01*
G01X-498772Y-849661D01*
G01X-497409Y-850570D01*
G01X-496348Y-851327D01*
G01X-495288Y-852236D01*
G01X-494075Y-853145D01*
G01X-491500Y-855721D01*
G01X-490591Y-856933D01*
G01X-489985Y-857691D01*
G01X-489379Y-858600D01*
G01X-488621Y-859812D01*
G01X-487863Y-861176D01*
G01X-487257Y-862388D01*
G01X-486803Y-863600D01*
G01X-486348Y-864964D01*
G01X-485894Y-866630D01*
G01X-485591Y-868145D01*
G01X-485439Y-871479D01*
G01X-485591Y-874812D01*
G01X-485894Y-876327D01*
G01X-486348Y-877842D01*
G01X-486954Y-879055D01*
G01X-487560Y-880115D01*
G01X-488318Y-881176D01*
G01X-489227Y-882236D01*
G01X-490742Y-883448D01*
G01X-491954Y-884358D01*
G01X-493166Y-885115D01*
G01X-493924Y-885721D01*
G01X-496045Y-887539D01*
G01X-496803Y-888600D01*
G01X-497409Y-890267D01*
G01X-497257Y-892085D01*
G01X-496500Y-893600D01*
G01X-495742Y-894661D01*
G01X-495136Y-895570D01*
G01X-492863Y-898297D01*
G01X-489076Y-902085D01*
G01X-487560Y-903297D01*
G01X-486803Y-904054D01*
G01X-486045Y-904661D01*
G01X-484985Y-905418D01*
G01X-483621Y-906327D01*
G01X-482409Y-906933D01*
G01X-481348Y-907236D01*
G01X-478621Y-907842D01*
G01X-477106Y-908145D01*
G01X-475288Y-908600D01*
G01X-474227Y-909206D01*
G01X-473621Y-910115D01*
G01X-473469Y-911479D01*
G01X-473924Y-912994D01*
G01X-474682Y-914357D01*
G01X-475439Y-915418D01*
G01X-476197Y-916176D01*
G01X-477409Y-917085D01*
G01X-478773Y-917994D01*
G01X-479833Y-918600D01*
G01X-481197Y-919206D01*
G01X-482560Y-919661D01*
G01X-485591Y-919812D01*
G37*
G36*
G01X-467712Y-917842D02*
G01X-469076Y-917842D01*
G01X-470439Y-917236D01*
G01X-471500Y-916024D01*
G01X-471954Y-914812D01*
G01X-471954Y-913903D01*
G01X-471651Y-912691D01*
G01X-470742Y-911327D01*
G01X-468470Y-909812D01*
G01X-467409Y-909206D01*
G01X-466197Y-908600D01*
G01X-465136Y-907994D01*
G01X-463924Y-906933D01*
G01X-463166Y-905721D01*
G01X-462712Y-904661D01*
G01X-462409Y-901630D01*
G01X-462560Y-898448D01*
G01X-462863Y-896327D01*
G01X-463773Y-890873D01*
G01X-463924Y-889812D01*
G01X-463773Y-888448D01*
G01X-463318Y-886630D01*
G01X-462712Y-884509D01*
G01X-462257Y-882994D01*
G01X-461651Y-880267D01*
G01X-461045Y-876933D01*
G01X-460742Y-873903D01*
G01X-460591Y-871479D01*
G01X-460742Y-868752D01*
G01X-461348Y-866327D01*
G01X-461954Y-865267D01*
G01X-462712Y-864509D01*
G01X-463924Y-863752D01*
G01X-465288Y-863297D01*
G01X-466651Y-862994D01*
G01X-468470Y-862539D01*
G01X-470136Y-861630D01*
G01X-471045Y-860570D01*
G01X-471045Y-859358D01*
G01X-470439Y-857842D01*
G01X-469530Y-856782D01*
G01X-468773Y-856176D01*
G01X-467712Y-855570D01*
G01X-466500Y-855115D01*
G01X-463773Y-854964D01*
G01X-461045Y-855115D01*
G01X-457712Y-855267D01*
G01X-454227Y-854964D01*
G01X-452712Y-854358D01*
G01X-450894Y-853752D01*
G01X-449379Y-853145D01*
G01X-448015Y-852691D01*
G01X-446500Y-852388D01*
G01X-445288Y-852388D01*
G01X-444076Y-852539D01*
G01X-442712Y-852842D01*
G01X-441651Y-853297D01*
G01X-440591Y-854206D01*
G01X-439833Y-855570D01*
G01X-439530Y-856933D01*
G01X-439682Y-858297D01*
G01X-440288Y-859358D01*
G01X-441197Y-860115D01*
G01X-442257Y-860721D01*
G01X-443470Y-861327D01*
G01X-444530Y-861933D01*
G01X-445288Y-862539D01*
G01X-446045Y-863752D01*
G01X-446500Y-865115D01*
G01X-446651Y-871479D01*
G01X-446500Y-877842D01*
G01X-446197Y-878903D01*
G01X-446197Y-880267D01*
G01X-446500Y-881782D01*
G01X-446803Y-882994D01*
G01X-447106Y-896933D01*
G01X-447409Y-898448D01*
G01X-447863Y-900115D01*
G01X-448167Y-901933D01*
G01X-448015Y-903600D01*
G01X-447712Y-904661D01*
G01X-447106Y-905873D01*
G01X-446045Y-907236D01*
G01X-444227Y-909054D01*
G01X-442712Y-910267D01*
G01X-440894Y-912085D01*
G01X-440288Y-913600D01*
G01X-440742Y-915115D01*
G01X-441651Y-916176D01*
G01X-442712Y-916782D01*
G01X-444076Y-917236D01*
G01X-445288Y-917539D01*
G01X-449227Y-917842D01*
G01X-450136Y-917842D01*
G01X-451803Y-917691D01*
G01X-454076Y-917388D01*
G01X-455591Y-916933D01*
G01X-459227Y-916479D01*
G01X-460439Y-916630D01*
G01X-461500Y-916782D01*
G01X-462863Y-916933D01*
G01X-464076Y-917236D01*
G01X-465742Y-917539D01*
G01X-467712Y-917842D01*
G37*
G36*
G01X-431045Y-917842D02*
G01X-432106Y-917842D01*
G01X-433470Y-917236D01*
G01X-434682Y-916024D01*
G01X-435136Y-914509D01*
G01X-434985Y-913297D01*
G01X-434682Y-912236D01*
G01X-434076Y-911327D01*
G01X-433167Y-910721D01*
G01X-432106Y-910115D01*
G01X-430742Y-909358D01*
G01X-429530Y-908600D01*
G01X-428318Y-907994D01*
G01X-427106Y-906933D01*
G01X-426348Y-905721D01*
G01X-425894Y-904358D01*
G01X-425591Y-902994D01*
G01X-425439Y-901933D01*
G01X-425591Y-899964D01*
G01X-425894Y-897539D01*
G01X-426197Y-895418D01*
G01X-426500Y-893903D01*
G01X-426803Y-892085D01*
G01X-427106Y-889661D01*
G01X-426954Y-887994D01*
G01X-426500Y-886630D01*
G01X-426045Y-884964D01*
G01X-425591Y-883600D01*
G01X-424985Y-880873D01*
G01X-424379Y-877539D01*
G01X-424076Y-875115D01*
G01X-423924Y-872085D01*
G01X-424076Y-868145D01*
G01X-424530Y-866327D01*
G01X-425136Y-865267D01*
G01X-426197Y-864206D01*
G01X-427409Y-863600D01*
G01X-428773Y-863297D01*
G01X-430742Y-862842D01*
G01X-432561Y-862236D01*
G01X-433621Y-861479D01*
G01X-434227Y-860418D01*
G01X-434227Y-859206D01*
G01X-433773Y-857994D01*
G01X-433167Y-857085D01*
G01X-432106Y-856327D01*
G01X-431045Y-855721D01*
G01X-429985Y-855267D01*
G01X-426954Y-854964D01*
G01X-424076Y-855115D01*
G01X-421348Y-855267D01*
G01X-418318Y-855115D01*
G01X-416651Y-854661D01*
G01X-411651Y-852842D01*
G01X-409833Y-852388D01*
G01X-408318Y-852388D01*
G01X-407257Y-852539D01*
G01X-405894Y-852842D01*
G01X-404833Y-853449D01*
G01X-404075Y-854055D01*
G01X-403318Y-854964D01*
G01X-402863Y-856024D01*
G01X-402712Y-857236D01*
G01X-403015Y-858600D01*
G01X-403621Y-859509D01*
G01X-404378Y-860115D01*
G01X-407712Y-861782D01*
G01X-408621Y-862691D01*
G01X-409378Y-864055D01*
G01X-409681Y-871327D01*
G01X-409378Y-878600D01*
G01X-409227Y-879661D01*
G01X-409833Y-882388D01*
G01X-410136Y-894509D01*
G01X-410288Y-895721D01*
G01X-410439Y-897842D01*
G01X-410894Y-899661D01*
G01X-411348Y-900873D01*
G01X-411348Y-902691D01*
G01X-410894Y-904661D01*
G01X-410288Y-905873D01*
G01X-409681Y-906782D01*
G01X-408924Y-907691D01*
G01X-408166Y-908448D01*
G01X-406651Y-909661D01*
G01X-405742Y-910418D01*
G01X-404530Y-911479D01*
G01X-403621Y-912842D01*
G01X-403469Y-913903D01*
G01X-403924Y-915115D01*
G01X-404833Y-916176D01*
G01X-405894Y-916782D01*
G01X-407106Y-917236D01*
G01X-408318Y-917539D01*
G01X-412560Y-917842D01*
G01X-413469Y-917842D01*
G01X-414833Y-917691D01*
G01X-416500Y-917539D01*
G01X-417712Y-917236D01*
G01X-419227Y-916933D01*
G01X-421348Y-916630D01*
G01X-423773Y-916630D01*
G01X-425894Y-916933D01*
G01X-427409Y-917236D01*
G01X-428621Y-917539D01*
G01X-431045Y-917842D01*
G37*
G36*
G01X-364530Y-918600D02*
G01X-367560Y-918448D01*
G01X-369227Y-917994D01*
G01X-372257Y-917236D01*
G01X-375288Y-916630D01*
G01X-377712Y-916327D01*
G01X-380894Y-916176D01*
G01X-384075Y-916327D01*
G01X-386500Y-916630D01*
G01X-388166Y-916933D01*
G01X-389985Y-917388D01*
G01X-391500Y-917691D01*
G01X-393318Y-917388D01*
G01X-394833Y-916782D01*
G01X-395894Y-916024D01*
G01X-396651Y-914964D01*
G01X-397106Y-913903D01*
G01X-397257Y-912691D01*
G01X-397106Y-910873D01*
G01X-396651Y-908903D01*
G01X-396045Y-907236D01*
G01X-395439Y-905721D01*
G01X-391803Y-898448D01*
G01X-390591Y-896327D01*
G01X-389985Y-895115D01*
G01X-389378Y-894055D01*
G01X-388621Y-892691D01*
G01X-387712Y-891176D01*
G01X-386197Y-888752D01*
G01X-385288Y-887236D01*
G01X-383166Y-884206D01*
G01X-382409Y-883145D01*
G01X-381954Y-882388D01*
G01X-380136Y-880115D01*
G01X-379378Y-879358D01*
G01X-378166Y-877842D01*
G01X-375894Y-875570D01*
G01X-373469Y-873752D01*
G01X-372409Y-872691D01*
G01X-371651Y-871479D01*
G01X-371197Y-870570D01*
G01X-370742Y-869055D01*
G01X-370439Y-867539D01*
G01X-370288Y-865721D01*
G01X-370439Y-863600D01*
G01X-370894Y-861933D01*
G01X-371651Y-860267D01*
G01X-372409Y-859206D01*
G01X-373318Y-858146D01*
G01X-374379Y-857085D01*
G01X-375288Y-856479D01*
G01X-376954Y-856024D01*
G01X-378053Y-856024D01*
G01X-378924Y-856327D01*
G01X-379985Y-857236D01*
G01X-380742Y-858297D01*
G01X-381500Y-859812D01*
G01X-382106Y-861176D01*
G01X-383318Y-863600D01*
G01X-384075Y-864812D01*
G01X-384985Y-865873D01*
G01X-385894Y-866479D01*
G01X-386954Y-866782D01*
G01X-388318Y-866630D01*
G01X-389985Y-866176D01*
G01X-391348Y-865570D01*
G01X-392257Y-865115D01*
G01X-393318Y-864206D01*
G01X-394075Y-862994D01*
G01X-394530Y-862085D01*
G01X-394833Y-861024D01*
G01X-394530Y-858903D01*
G01X-394227Y-857691D01*
G01X-393621Y-856327D01*
G01X-393015Y-855115D01*
G01X-392257Y-853903D01*
G01X-391348Y-852842D01*
G01X-389075Y-850570D01*
G01X-388015Y-849661D01*
G01X-386954Y-848903D01*
G01X-385894Y-848297D01*
G01X-384682Y-847691D01*
G01X-383621Y-847236D01*
G01X-382409Y-846782D01*
G01X-381045Y-846327D01*
G01X-379833Y-846024D01*
G01X-377409Y-845721D01*
G01X-375894Y-845570D01*
G01X-373772Y-845721D01*
G01X-371954Y-846024D01*
G01X-369530Y-846630D01*
G01X-368166Y-847085D01*
G01X-366803Y-847691D01*
G01X-365288Y-848448D01*
G01X-362560Y-850267D01*
G01X-361500Y-851176D01*
G01X-358924Y-853752D01*
G01X-358015Y-854812D01*
G01X-357106Y-856176D01*
G01X-356348Y-857691D01*
G01X-355894Y-859055D01*
G01X-355742Y-861176D01*
G01X-355894Y-863297D01*
G01X-356197Y-865418D01*
G01X-356500Y-867085D01*
G01X-356954Y-869206D01*
G01X-357560Y-871024D01*
G01X-358166Y-872691D01*
G01X-359379Y-875721D01*
G01X-360591Y-877842D01*
G01X-361197Y-879055D01*
G01X-361954Y-880267D01*
G01X-362712Y-881327D01*
G01X-363318Y-882236D01*
G01X-364076Y-883145D01*
G01X-365288Y-884661D01*
G01X-366803Y-886176D01*
G01X-368318Y-887388D01*
G01X-370591Y-889661D01*
G01X-371197Y-890418D01*
G01X-372106Y-891479D01*
G01X-374833Y-895115D01*
G01X-375439Y-895873D01*
G01X-376197Y-896933D01*
G01X-377106Y-897994D01*
G01X-378318Y-899509D01*
G01X-379833Y-900721D01*
G01X-380742Y-901327D01*
G01X-381954Y-901933D01*
G01X-383015Y-902539D01*
G01X-383772Y-903145D01*
G01X-384227Y-904206D01*
G01X-383924Y-905570D01*
G01X-383166Y-906479D01*
G01X-382106Y-907085D01*
G01X-379833Y-907388D01*
G01X-377712Y-907236D01*
G01X-374682Y-906630D01*
G01X-373469Y-906327D01*
G01X-372106Y-905873D01*
G01X-370742Y-905267D01*
G01X-365894Y-902842D01*
G01X-364379Y-902236D01*
G01X-363015Y-901630D01*
G01X-360591Y-900721D01*
G01X-357560Y-899812D01*
G01X-356348Y-899509D01*
G01X-355288Y-900115D01*
G01X-354947Y-900910D01*
G01X-354833Y-902085D01*
G01X-354985Y-904509D01*
G01X-355288Y-906630D01*
G01X-355591Y-908145D01*
G01X-355742Y-909661D01*
G01X-355894Y-911479D01*
G01X-356197Y-913297D01*
G01X-356803Y-915115D01*
G01X-357560Y-916176D01*
G01X-358621Y-917085D01*
G01X-360288Y-917994D01*
G01X-361651Y-918448D01*
G01X-364530Y-918600D01*
G37*
G36*
G01X-345288Y-917842D02*
G01X-347106Y-917691D01*
G01X-348053Y-917274D01*
G01X-348773Y-916630D01*
G01X-349530Y-914964D01*
G01X-349379Y-913145D01*
G01X-348773Y-911933D01*
G01X-348166Y-911176D01*
G01X-347106Y-910418D01*
G01X-344985Y-909206D01*
G01X-343773Y-908600D01*
G01X-342712Y-907994D01*
G01X-341500Y-906933D01*
G01X-340591Y-905418D01*
G01X-340136Y-904206D01*
G01X-339985Y-901327D01*
G01X-340136Y-898448D01*
G01X-340439Y-896327D01*
G01X-341045Y-892994D01*
G01X-341348Y-890873D01*
G01X-341500Y-889661D01*
G01X-341348Y-888448D01*
G01X-340591Y-885418D01*
G01X-339985Y-883297D01*
G01X-339227Y-880267D01*
G01X-338621Y-876630D01*
G01X-338318Y-873600D01*
G01X-338166Y-871327D01*
G01X-338318Y-869055D01*
G01X-338621Y-867539D01*
G01X-339076Y-866024D01*
G01X-339682Y-865115D01*
G01X-340439Y-864358D01*
G01X-341500Y-863752D01*
G01X-343015Y-863297D01*
G01X-344985Y-862842D01*
G01X-346803Y-862236D01*
G01X-348015Y-861479D01*
G01X-348621Y-860570D01*
G01X-348621Y-859358D01*
G01X-348015Y-857842D01*
G01X-346803Y-856479D01*
G01X-345288Y-855570D01*
G01X-344076Y-855115D01*
G01X-341348Y-854964D01*
G01X-335894Y-855267D01*
G01X-332863Y-855115D01*
G01X-331651Y-854812D01*
G01X-328470Y-853752D01*
G01X-326954Y-853145D01*
G01X-325591Y-852691D01*
G01X-324076Y-852388D01*
G01X-322863Y-852388D01*
G01X-321651Y-852539D01*
G01X-320439Y-852842D01*
G01X-319227Y-853449D01*
G01X-318166Y-854206D01*
G01X-317560Y-855267D01*
G01X-317257Y-857085D01*
G01X-317560Y-858903D01*
G01X-318621Y-859964D01*
G01X-319985Y-860721D01*
G01X-321197Y-861327D01*
G01X-322106Y-861933D01*
G01X-322863Y-862539D01*
G01X-323621Y-863600D01*
G01X-324076Y-864812D01*
G01X-324227Y-871327D01*
G01X-324076Y-877842D01*
G01X-323773Y-878903D01*
G01X-323773Y-880267D01*
G01X-324076Y-881782D01*
G01X-324379Y-882994D01*
G01X-324530Y-889661D01*
G01X-324682Y-896630D01*
G01X-324985Y-898448D01*
G01X-325439Y-899964D01*
G01X-325742Y-902085D01*
G01X-325439Y-904358D01*
G01X-324985Y-905570D01*
G01X-324379Y-906479D01*
G01X-323773Y-907236D01*
G01X-322863Y-908145D01*
G01X-321803Y-909054D01*
G01X-320288Y-910267D01*
G01X-318469Y-912085D01*
G01X-317863Y-913600D01*
G01X-318318Y-915115D01*
G01X-319227Y-916176D01*
G01X-320288Y-916782D01*
G01X-321651Y-917236D01*
G01X-322863Y-917539D01*
G01X-326803Y-917842D01*
G01X-327712Y-917842D01*
G01X-329076Y-917691D01*
G01X-330742Y-917539D01*
G01X-331954Y-917236D01*
G01X-333470Y-916933D01*
G01X-335591Y-916630D01*
G01X-338015Y-916630D01*
G01X-340439Y-916933D01*
G01X-343469Y-917539D01*
G01X-345288Y-917842D01*
G37*
G36*
G01X-230894Y-918297D02*
G01X-234379Y-918145D01*
G01X-236197Y-917691D01*
G01X-238166Y-917085D01*
G01X-239530Y-916479D01*
G01X-240742Y-915873D01*
G01X-242257Y-915267D01*
G01X-243469Y-914812D01*
G01X-244833Y-914661D01*
G01X-246500Y-914812D01*
G01X-247712Y-915267D01*
G01X-250136Y-916479D01*
G01X-251500Y-916933D01*
G01X-252863Y-916933D01*
G01X-254075Y-916630D01*
G01X-255439Y-915721D01*
G01X-256197Y-914357D01*
G01X-256500Y-913297D01*
G01X-256651Y-909358D01*
G01X-256500Y-905418D01*
G01X-256348Y-900418D01*
G01X-256500Y-895418D01*
G01X-256772Y-891327D01*
G01X-242409Y-891327D01*
G01X-242257Y-894812D01*
G01X-242106Y-896782D01*
G01X-242257Y-898751D01*
G01X-242409Y-901176D01*
G01X-242257Y-903903D01*
G01X-241803Y-905418D01*
G01X-241045Y-906933D01*
G01X-239833Y-908297D01*
G01X-238318Y-909054D01*
G01X-238318Y-909054D01*
G01X-237409Y-909358D01*
G01X-235439Y-909509D01*
G01X-232712Y-909206D01*
G01X-231045Y-908448D01*
G01X-229985Y-907539D01*
G01X-229227Y-906782D01*
G01X-228318Y-905721D01*
G01X-227560Y-904509D01*
G01X-226954Y-903145D01*
G01X-225894Y-899964D01*
G01X-225591Y-897842D01*
G01X-225439Y-894358D01*
G01X-225591Y-890570D01*
G01X-225894Y-889055D01*
G01X-226348Y-887388D01*
G01X-226954Y-886024D01*
G01X-227560Y-884812D01*
G01X-228469Y-883297D01*
G01X-229379Y-882085D01*
G01X-230439Y-881024D01*
G01X-231803Y-880115D01*
G01X-233015Y-879509D01*
G01X-234833Y-879206D01*
G01X-237106Y-879358D01*
G01X-238924Y-879964D01*
G01X-240136Y-881176D01*
G01X-240894Y-882388D01*
G01X-241500Y-883903D01*
G01X-241954Y-885418D01*
G01X-242257Y-887842D01*
G01X-242409Y-891327D01*
G01X-256772Y-891327D01*
G01X-256803Y-890873D01*
G01X-256954Y-886176D01*
G01X-256803Y-881479D01*
G01X-255591Y-874812D01*
G01X-255439Y-866176D01*
G01X-255591Y-856630D01*
G01X-255818Y-855532D01*
G01X-256197Y-854964D01*
G01X-256954Y-854206D01*
G01X-258015Y-853297D01*
G01X-259378Y-852236D01*
G01X-259795Y-851668D01*
G01X-259833Y-851176D01*
G01X-259378Y-850418D01*
G01X-258772Y-849812D01*
G01X-258015Y-849206D01*
G01X-256954Y-848448D01*
G01X-255591Y-847539D01*
G01X-254378Y-846782D01*
G01X-252257Y-845570D01*
G01X-250136Y-844661D01*
G01X-248621Y-844206D01*
G01X-247106Y-843903D01*
G01X-246197Y-843903D01*
G01X-245136Y-844358D01*
G01X-244227Y-845115D01*
G01X-243621Y-846176D01*
G01X-243166Y-847691D01*
G01X-242863Y-849055D01*
G01X-242560Y-853600D01*
G01X-242257Y-860267D01*
G01X-242106Y-862388D01*
G01X-241954Y-865115D01*
G01X-241651Y-866933D01*
G01X-241197Y-868600D01*
G01X-240591Y-869964D01*
G01X-239985Y-870873D01*
G01X-238924Y-871479D01*
G01X-237257Y-871327D01*
G01X-235742Y-870721D01*
G01X-234076Y-870267D01*
G01X-232560Y-869964D01*
G01X-230894Y-869812D01*
G01X-229227Y-869964D01*
G01X-227712Y-870267D01*
G01X-225742Y-870721D01*
G01X-224076Y-871327D01*
G01X-222560Y-871933D01*
G01X-221197Y-872691D01*
G01X-219985Y-873903D01*
G01X-219076Y-875115D01*
G01X-216803Y-878297D01*
G01X-216045Y-879509D01*
G01X-215439Y-880418D01*
G01X-214833Y-881479D01*
G01X-214227Y-882691D01*
G01X-213772Y-883752D01*
G01X-213318Y-884964D01*
G01X-212863Y-886327D01*
G01X-212560Y-887539D01*
G01X-212409Y-890267D01*
G01X-212560Y-892994D01*
G01X-212712Y-894206D01*
G01X-212863Y-896024D01*
G01X-213469Y-899661D01*
G01X-213924Y-901782D01*
G01X-214530Y-903751D01*
G01X-215136Y-905418D01*
G01X-216348Y-908145D01*
G01X-216954Y-909358D01*
G01X-217712Y-910570D01*
G01X-218772Y-912085D01*
G01X-219682Y-913297D01*
G01X-221197Y-914812D01*
G01X-222257Y-915721D01*
G01X-223469Y-916479D01*
G01X-225288Y-917388D01*
G01X-226500Y-917842D01*
G01X-227712Y-918145D01*
G01X-230894Y-918297D01*
G37*
G36*
G01X-208772Y-917691D02*
G01X-209378Y-916782D01*
G01X-209833Y-915759D01*
G01X-209985Y-914509D01*
G01X-209833Y-912085D01*
G01X-209227Y-910267D01*
G01X-208659Y-909623D01*
G01X-207863Y-909206D01*
G01X-206045Y-908600D01*
G01X-204681Y-907691D01*
G01X-204340Y-905380D01*
G01X-204227Y-899661D01*
G01X-204378Y-891782D01*
G01X-204530Y-890721D01*
G01X-204681Y-889358D01*
G01X-204984Y-887842D01*
G01X-205439Y-886176D01*
G01X-206045Y-884812D01*
G01X-206651Y-883752D01*
G01X-207409Y-882842D01*
G01X-208621Y-882085D01*
G01X-209985Y-881479D01*
G01X-211197Y-880570D01*
G01X-211613Y-879661D01*
G01X-211651Y-878449D01*
G01X-211045Y-876327D01*
G01X-209985Y-875267D01*
G01X-208772Y-874661D01*
G01X-207106Y-874206D01*
G01X-205591Y-873752D01*
G01X-204530Y-873297D01*
G01X-203621Y-872691D01*
G01X-202106Y-871479D01*
G01X-201045Y-870418D01*
G01X-199833Y-869509D01*
G01X-198621Y-868752D01*
G01X-197106Y-868297D01*
G01X-195742Y-868600D01*
G01X-194681Y-869055D01*
G01X-193924Y-869661D01*
G01X-193318Y-870570D01*
G01X-192712Y-871630D01*
G01X-191954Y-872388D01*
G01X-191045Y-872236D01*
G01X-190136Y-871782D01*
G01X-189378Y-871176D01*
G01X-188318Y-870267D01*
G01X-187106Y-869509D01*
G01X-185893Y-868903D01*
G01X-184681Y-868449D01*
G01X-182409Y-868297D01*
G01X-179681Y-868600D01*
G01X-178318Y-869206D01*
G01X-177257Y-869812D01*
G01X-176348Y-870570D01*
G01X-175590Y-871327D01*
G01X-174833Y-872388D01*
G01X-174227Y-873600D01*
G01X-173924Y-875115D01*
G01X-174075Y-876933D01*
G01X-174378Y-878145D01*
G01X-174833Y-879358D01*
G01X-175590Y-880721D01*
G01X-176651Y-882085D01*
G01X-177712Y-883145D01*
G01X-178621Y-883752D01*
G01X-179984Y-884055D01*
G01X-181954Y-883903D01*
G01X-183924Y-883448D01*
G01X-185439Y-882691D01*
G01X-186803Y-881630D01*
G01X-189378Y-879055D01*
G01X-190136Y-878449D01*
G01X-191348Y-878449D01*
G01X-191916Y-878714D01*
G01X-192106Y-879206D01*
G01X-192257Y-880267D01*
G01X-192409Y-882236D01*
G01X-192560Y-885115D01*
G01X-192560Y-886933D01*
G01X-192257Y-891479D01*
G01X-191954Y-894206D01*
G01X-191803Y-895267D01*
G01X-191651Y-896933D01*
G01X-191651Y-898448D01*
G01X-191954Y-900570D01*
G01X-192560Y-903600D01*
G01X-192560Y-904812D01*
G01X-191954Y-906327D01*
G01X-190742Y-907691D01*
G01X-189227Y-908600D01*
G01X-188015Y-909206D01*
G01X-187106Y-909812D01*
G01X-186197Y-910570D01*
G01X-185439Y-911933D01*
G01X-185439Y-913751D01*
G01X-186045Y-915115D01*
G01X-186500Y-916024D01*
G01X-187106Y-916782D01*
G01X-187863Y-917388D01*
G01X-198469Y-917691D01*
G01X-208772Y-917691D01*
G37*
G36*
G01X-143621Y-918297D02*
G01X-147409Y-918145D01*
G01X-150439Y-917539D01*
G01X-151803Y-917236D01*
G01X-153621Y-916782D01*
G01X-155439Y-916176D01*
G01X-156954Y-915570D01*
G01X-158318Y-914964D01*
G01X-159530Y-914357D01*
G01X-160591Y-913751D01*
G01X-161803Y-912994D01*
G01X-162863Y-912236D01*
G01X-163621Y-911630D01*
G01X-164378Y-911176D01*
G01X-165136Y-910570D01*
G01X-168166Y-907539D01*
G01X-168772Y-906782D01*
G01X-169530Y-905721D01*
G01X-170439Y-904206D01*
G01X-171197Y-902842D01*
G01X-172106Y-900418D01*
G01X-172560Y-898903D01*
G01X-172863Y-897539D01*
G01X-173015Y-896327D01*
G01X-173166Y-894509D01*
G01X-173166Y-892994D01*
G01X-173015Y-891782D01*
G01X-172863Y-890267D01*
G01X-172560Y-888752D01*
G01X-172106Y-887085D01*
G01X-171500Y-885570D01*
G01X-170894Y-884358D01*
G01X-170136Y-882994D01*
G01X-168946Y-881327D01*
G01X-154378Y-881327D01*
G01X-154075Y-882691D01*
G01X-153469Y-884055D01*
G01X-152712Y-884812D01*
G01X-151803Y-885418D01*
G01X-151803Y-885418D01*
G01X-151045Y-885721D01*
G01X-144833Y-885873D01*
G01X-138015Y-885721D01*
G01X-136500Y-885267D01*
G01X-135288Y-884509D01*
G01X-134833Y-883448D01*
G01X-135136Y-882085D01*
G01X-136197Y-879964D01*
G01X-136803Y-879206D01*
G01X-138318Y-877691D01*
G01X-139075Y-877085D01*
G01X-139985Y-876630D01*
G01X-141197Y-876176D01*
G01X-143015Y-875873D01*
G01X-144985Y-876024D01*
G01X-146500Y-876327D01*
G01X-148166Y-876782D01*
G01X-149530Y-877388D01*
G01X-151954Y-878600D01*
G01X-153015Y-879206D01*
G01X-154075Y-880267D01*
G01X-154378Y-881327D01*
G01X-168946Y-881327D01*
G01X-168621Y-880873D01*
G01X-167712Y-879812D01*
G01X-165894Y-877994D01*
G01X-164378Y-876782D01*
G01X-162863Y-875721D01*
G01X-161803Y-874964D01*
G01X-160742Y-874358D01*
G01X-157106Y-872539D01*
G01X-153469Y-871176D01*
G01X-151803Y-870721D01*
G01X-150439Y-870267D01*
G01X-149075Y-869964D01*
G01X-146045Y-869055D01*
G01X-144681Y-868752D01*
G01X-142409Y-868600D01*
G01X-139985Y-868903D01*
G01X-138924Y-869509D01*
G01X-137712Y-870115D01*
G01X-134681Y-871327D01*
G01X-130742Y-873297D01*
G01X-129227Y-874206D01*
G01X-128166Y-874964D01*
G01X-127409Y-875418D01*
G01X-126651Y-876024D01*
G01X-125591Y-876933D01*
G01X-124682Y-877842D01*
G01X-124075Y-878600D01*
G01X-123166Y-879661D01*
G01X-122409Y-880721D01*
G01X-121954Y-881782D01*
G01X-121500Y-883145D01*
G01X-121197Y-885418D01*
G01X-121500Y-887691D01*
G01X-122106Y-889055D01*
G01X-122863Y-890115D01*
G01X-124075Y-890873D01*
G01X-125591Y-891479D01*
G01X-126803Y-891782D01*
G01X-128318Y-891933D01*
G01X-129833Y-891782D01*
G01X-134075Y-891176D01*
G01X-142257Y-891024D01*
G01X-150742Y-891327D01*
G01X-152106Y-892085D01*
G01X-153166Y-892842D01*
G01X-153924Y-893751D01*
G01X-154530Y-894964D01*
G01X-154833Y-896782D01*
G01X-154681Y-899055D01*
G01X-154378Y-900570D01*
G01X-153924Y-901933D01*
G01X-153318Y-903297D01*
G01X-152712Y-904358D01*
G01X-151954Y-905267D01*
G01X-151197Y-906024D01*
G01X-150591Y-906782D01*
G01X-149984Y-907388D01*
G01X-148924Y-908145D01*
G01X-147560Y-909054D01*
G01X-145894Y-909812D01*
G01X-144378Y-910267D01*
G01X-142409Y-910418D01*
G01X-139833Y-910267D01*
G01X-137712Y-909812D01*
G01X-135894Y-909206D01*
G01X-133772Y-908145D01*
G01X-133015Y-907539D01*
G01X-131197Y-905721D01*
G01X-128772Y-902691D01*
G01X-127863Y-901479D01*
G01X-127106Y-900721D01*
G01X-126045Y-900115D01*
G01X-124682Y-899964D01*
G01X-123318Y-900570D01*
G01X-122257Y-901327D01*
G01X-121651Y-902388D01*
G01X-121651Y-903600D01*
G01X-122106Y-904812D01*
G01X-122863Y-906327D01*
G01X-123621Y-907388D01*
G01X-124075Y-908145D01*
G01X-125894Y-910418D01*
G01X-127712Y-912236D01*
G01X-129227Y-913448D01*
G01X-130439Y-914357D01*
G01X-131500Y-915115D01*
G01X-132863Y-915873D01*
G01X-134227Y-916479D01*
G01X-136651Y-917388D01*
G01X-138318Y-917842D01*
G01X-139833Y-918145D01*
G01X-143621Y-918297D01*
G37*
G36*
G01X-73772Y-918600D02*
G01X-75590Y-918448D01*
G01X-77106Y-917994D01*
G01X-78772Y-917388D01*
G01X-80136Y-916782D01*
G01X-81651Y-916024D01*
G01X-82863Y-915267D01*
G01X-83924Y-914812D01*
G01X-85136Y-914357D01*
G01X-86651Y-914054D01*
G01X-88166Y-914357D01*
G01X-89530Y-914964D01*
G01X-90742Y-915570D01*
G01X-92863Y-916479D01*
G01X-94075Y-916933D01*
G01X-95439Y-917388D01*
G01X-96651Y-917691D01*
G01X-97712Y-917842D01*
G01X-100287Y-917994D01*
G01X-103772Y-917842D01*
G01X-105591Y-917539D01*
G01X-106954Y-917236D01*
G01X-108318Y-916782D01*
G01X-111045Y-915418D01*
G01X-112560Y-914357D01*
G01X-113772Y-913448D01*
G01X-114530Y-912691D01*
G01X-115136Y-911933D01*
G01X-115894Y-910873D01*
G01X-116651Y-909661D01*
G01X-117257Y-908448D01*
G01X-117863Y-907085D01*
G01X-118318Y-905570D01*
G01X-118621Y-904206D01*
G01X-118772Y-901630D01*
G01X-118722Y-900570D01*
G01X-104530Y-900570D01*
G01X-104378Y-901782D01*
G01X-104075Y-903145D01*
G01X-103469Y-904812D01*
G01X-102712Y-905873D01*
G01X-102106Y-906630D01*
G01X-101348Y-907388D01*
G01X-100590Y-907994D01*
G01X-98772Y-909206D01*
G01X-97409Y-909661D01*
G01X-97409Y-909661D01*
G01X-96197Y-909964D01*
G01X-94681Y-910115D01*
G01X-92863Y-909964D01*
G01X-91651Y-909661D01*
G01X-90287Y-909054D01*
G01X-89227Y-908297D01*
G01X-88469Y-907539D01*
G01X-87863Y-906630D01*
G01X-87560Y-903903D01*
G01X-87712Y-900570D01*
G01X-88015Y-899055D01*
G01X-88318Y-897691D01*
G01X-88772Y-896176D01*
G01X-89378Y-894812D01*
G01X-89984Y-893751D01*
G01X-90590Y-892994D01*
G01X-91499Y-892236D01*
G01X-92560Y-891782D01*
G01X-93318Y-891782D01*
G01X-94227Y-891933D01*
G01X-95893Y-892236D01*
G01X-97560Y-892842D01*
G01X-98772Y-893448D01*
G01X-100136Y-894206D01*
G01X-101197Y-894964D01*
G01X-101954Y-895570D01*
G01X-103015Y-896630D01*
G01X-103924Y-898145D01*
G01X-104378Y-899358D01*
G01X-104530Y-900570D01*
G01X-118722Y-900570D01*
G01X-118621Y-898448D01*
G01X-118166Y-896630D01*
G01X-117560Y-895267D01*
G01X-116803Y-893903D01*
G01X-115894Y-892842D01*
G01X-114075Y-891024D01*
G01X-112863Y-890115D01*
G01X-111954Y-889509D01*
G01X-110894Y-888903D01*
G01X-109681Y-888297D01*
G01X-108469Y-887842D01*
G01X-107409Y-887388D01*
G01X-106197Y-886933D01*
G01X-102106Y-885570D01*
G01X-100590Y-885115D01*
G01X-99227Y-884812D01*
G01X-95590Y-884358D01*
G01X-93772Y-884055D01*
G01X-91954Y-883448D01*
G01X-90439Y-882691D01*
G01X-89227Y-881479D01*
G01X-88924Y-880418D01*
G01X-89075Y-879509D01*
G01X-89530Y-878145D01*
G01X-90742Y-876782D01*
G01X-92409Y-875873D01*
G01X-94075Y-875418D01*
G01X-95893Y-875418D01*
G01X-97409Y-875873D01*
G01X-98318Y-876479D01*
G01X-99075Y-877388D01*
G01X-99681Y-878752D01*
G01X-100287Y-880267D01*
G01X-100894Y-881327D01*
G01X-101500Y-882085D01*
G01X-102560Y-882842D01*
G01X-103772Y-883297D01*
G01X-104833Y-883448D01*
G01X-106803Y-883297D01*
G01X-108621Y-882842D01*
G01X-109833Y-882236D01*
G01X-110894Y-881479D01*
G01X-112409Y-879964D01*
G01X-113015Y-879055D01*
G01X-113318Y-877539D01*
G01X-113015Y-875721D01*
G01X-112409Y-874509D01*
G01X-111954Y-873449D01*
G01X-111348Y-872236D01*
G01X-110136Y-871024D01*
G01X-108621Y-870115D01*
G01X-106803Y-869509D01*
G01X-105288Y-869055D01*
G01X-103166Y-868752D01*
G01X-99833Y-868449D01*
G01X-97560Y-868297D01*
G01X-94378Y-868449D01*
G01X-92106Y-868903D01*
G01X-90287Y-869509D01*
G01X-88621Y-870267D01*
G01X-87106Y-871176D01*
G01X-86045Y-871933D01*
G01X-85287Y-872388D01*
G01X-84530Y-872994D01*
G01X-79984Y-877539D01*
G01X-79378Y-878297D01*
G01X-78772Y-879206D01*
G01X-78015Y-880418D01*
G01X-77257Y-881933D01*
G01X-76803Y-883297D01*
G01X-76499Y-887842D01*
G01X-76348Y-892691D01*
G01X-76196Y-898145D01*
G01X-75893Y-900267D01*
G01X-75439Y-902388D01*
G01X-74833Y-904358D01*
G01X-74227Y-905721D01*
G01X-73772Y-906630D01*
G01X-73166Y-907388D01*
G01X-72409Y-908145D01*
G01X-71348Y-909054D01*
G01X-69833Y-910115D01*
G01X-68621Y-911024D01*
G01X-67712Y-912085D01*
G01X-67409Y-912918D01*
G01X-67409Y-913903D01*
G01X-68015Y-915721D01*
G01X-68772Y-916630D01*
G01X-69378Y-917236D01*
G01X-70590Y-917994D01*
G01X-71954Y-918448D01*
G01X-73772Y-918600D01*
G37*
G36*
G01X-62106Y-918600D02*
G01X-63621Y-918297D01*
G01X-64681Y-917691D01*
G01X-65287Y-916933D01*
G01X-65287Y-915721D01*
G01X-64833Y-914509D01*
G01X-64227Y-913600D01*
G01X-63469Y-912842D01*
G01X-62409Y-912085D01*
G01X-61348Y-911479D01*
G01X-60590Y-910873D01*
G01X-59833Y-910115D01*
G01X-59075Y-908903D01*
G01X-58621Y-907539D01*
G01X-58469Y-904358D01*
G01X-58621Y-901176D01*
G01X-58924Y-897236D01*
G01X-59075Y-887388D01*
G01X-58924Y-877539D01*
G01X-58772Y-872994D01*
G01X-58621Y-868145D01*
G01X-58621Y-867464D01*
G01X-58924Y-866933D01*
G01X-59265Y-865645D01*
G01X-59378Y-862691D01*
G01X-59227Y-858449D01*
G01X-59227Y-857085D01*
G01X-59833Y-855418D01*
G01X-60742Y-854358D01*
G01X-61651Y-853752D01*
G01X-62863Y-853145D01*
G01X-63924Y-852539D01*
G01X-64833Y-851933D01*
G01X-65742Y-850721D01*
G01X-65742Y-849206D01*
G01X-64681Y-848145D01*
G01X-63469Y-847388D01*
G01X-59833Y-845570D01*
G01X-55287Y-843751D01*
G01X-53621Y-843145D01*
G01X-52257Y-842691D01*
G01X-51197Y-842539D01*
G01X-49984Y-842842D01*
G01X-48924Y-843297D01*
G01X-48015Y-844206D01*
G01X-47257Y-845721D01*
G01X-46803Y-846933D01*
G01X-46500Y-849055D01*
G01X-46197Y-855418D01*
G01X-45894Y-873600D01*
G01X-45742Y-874661D01*
G01X-45590Y-876630D01*
G01X-45287Y-879055D01*
G01X-44984Y-880570D01*
G01X-44833Y-882539D01*
G01X-44681Y-885418D01*
G01X-44378Y-886593D01*
G01X-43772Y-887388D01*
G01X-43015Y-887805D01*
G01X-42257Y-887842D01*
G01X-40894Y-887236D01*
G01X-39833Y-886479D01*
G01X-39075Y-885873D01*
G01X-38015Y-884964D01*
G01X-36803Y-884055D01*
G01X-34984Y-882236D01*
G01X-33772Y-881327D01*
G01X-31954Y-879206D01*
G01X-31500Y-878145D01*
G01X-31803Y-876782D01*
G01X-32257Y-875267D01*
G01X-32106Y-873752D01*
G01X-31197Y-872842D01*
G01X-29984Y-872236D01*
G01X-27257Y-871327D01*
G01X-25742Y-870873D01*
G01X-23772Y-870418D01*
G01X-21803Y-869812D01*
G01X-18166Y-868600D01*
G01X-16803Y-867994D01*
G01X-15742Y-867691D01*
G01X-14833Y-868145D01*
G01X-13318Y-869661D01*
G01X-12712Y-870570D01*
G01X-12560Y-871327D01*
G01X-12863Y-872388D01*
G01X-13469Y-873449D01*
G01X-14985Y-874964D01*
G01X-16500Y-876176D01*
G01X-19681Y-878449D01*
G01X-22409Y-880267D01*
G01X-23469Y-881024D01*
G01X-24227Y-881630D01*
G01X-25288Y-882388D01*
G01X-26348Y-883297D01*
G01X-28166Y-885115D01*
G01X-29075Y-886479D01*
G01X-29530Y-887539D01*
G01X-29530Y-889358D01*
G01X-29075Y-891176D01*
G01X-28469Y-892085D01*
G01X-22409Y-898145D01*
G01X-20894Y-900267D01*
G01X-20288Y-901024D01*
G01X-19681Y-901933D01*
G01X-18924Y-902842D01*
G01X-17712Y-904358D01*
G01X-16197Y-905873D01*
G01X-14985Y-906782D01*
G01X-13621Y-907691D01*
G01X-11500Y-908903D01*
G01X-10591Y-909509D01*
G01X-9681Y-909964D01*
G01X-8772Y-910570D01*
G01X-7257Y-912085D01*
G01X-6651Y-913145D01*
G01X-6500Y-914509D01*
G01X-7106Y-916024D01*
G01X-8015Y-917085D01*
G01X-9075Y-917691D01*
G01X-18924Y-917994D01*
G01X-28772Y-917691D01*
G01X-29984Y-917236D01*
G01X-30894Y-916630D01*
G01X-31500Y-915570D01*
G01X-31803Y-914054D01*
G01X-31651Y-912388D01*
G01X-31651Y-911176D01*
G01X-31954Y-909812D01*
G01X-32560Y-908145D01*
G01X-33469Y-906630D01*
G01X-34227Y-905570D01*
G01X-34681Y-904812D01*
G01X-35287Y-904054D01*
G01X-37106Y-901933D01*
G01X-40136Y-898903D01*
G01X-40894Y-898297D01*
G01X-41954Y-897842D01*
G01X-43318Y-897994D01*
G01X-43772Y-898865D01*
G01X-43924Y-900873D01*
G01X-43621Y-904509D01*
G01X-43166Y-906024D01*
G01X-42863Y-907085D01*
G01X-42257Y-908297D01*
G01X-41500Y-909358D01*
G01X-39681Y-911782D01*
G01X-39075Y-912691D01*
G01X-38621Y-913903D01*
G01X-38621Y-915418D01*
G01X-39075Y-916479D01*
G01X-39681Y-917236D01*
G01X-40742Y-917842D01*
G01X-41954Y-918145D01*
G01X-43318Y-918297D01*
G01X-44681Y-918145D01*
G01X-47712Y-917539D01*
G01X-52257Y-917388D01*
G01X-57106Y-917539D01*
G01X-60742Y-918448D01*
G01X-62106Y-918600D01*
G37*
G04 Text End*

G04 PolygonModel Start*
G54D10*
G01X1038299Y-889998D02*
G01X1613296Y-889998D01*
G01X1034999Y889998D02*
G01X1034999Y-889998D01*
G01X1613299Y889998D02*
G01X1038301Y889998D01*
G01X1617218Y-889914D02*
G01X1617218Y886308D01*
G01X1617218Y886308D02*
G01X1617218Y890118D01*
G01X1092200Y570768D02*
G01X1092200Y-612874D01*
G01X1034999Y570768D02*
G01X1092200Y570768D01*
G01X1092200Y685800D02*
G01X1034999Y685800D01*
G01X1104900Y825500D02*
G01X1092200Y825500D01*
G01X1092200Y825500D02*
G01X1092200Y685800D01*
G01X1104900Y825500D02*
G01X1130300Y825500D01*
G01X1034999Y-612874D02*
G01X1092200Y-612874D01*
G01X1092200Y-711200D02*
G01X1034999Y-711200D01*
G01X1226729Y-889998D02*
G01X1226729Y-825500D01*
G01X1226729Y-825500D02*
G01X1092200Y-825500D01*
G01X1092200Y-825500D02*
G01X1092200Y-711200D01*
G01X1320800Y-825500D02*
G01X1320800Y-889998D01*
G01X1328329Y889998D02*
G01X1328329Y825500D01*
G01X1328329Y825500D02*
G01X1536700Y825500D01*
G01X1536700Y825500D02*
G01X1536700Y-825500D01*
G01X1536700Y-825500D02*
G01X1320800Y-825500D01*
G01X1219200Y825500D02*
G01X1219200Y889998D01*
G01X1130300Y825500D02*
G01X1219200Y825500D01*
G01X-1501701Y-869598D02*
G01X-926704Y-869598D01*
G01X-1505001Y910398D02*
G01X-1505001Y-869598D01*
G01X-926701Y910398D02*
G01X-1501699Y910398D01*
G01X-922782Y-869514D02*
G01X-922782Y906708D01*
G01X-922782Y906708D02*
G01X-922782Y910518D01*
G01X-1447800Y591168D02*
G01X-1447800Y-592474D01*
G01X-1505001Y591168D02*
G01X-1447800Y591168D01*
G01X-1447800Y706200D02*
G01X-1505001Y706200D01*
G01X-1435100Y845900D02*
G01X-1447800Y845900D01*
G01X-1447800Y845900D02*
G01X-1447800Y706200D01*
G01X-1435100Y845900D02*
G01X-1409700Y845900D01*
G01X-1505001Y-592474D02*
G01X-1447800Y-592474D01*
G01X-1447800Y-690800D02*
G01X-1505001Y-690800D01*
G01X-1313271Y-869598D02*
G01X-1313271Y-805100D01*
G01X-1313271Y-805100D02*
G01X-1447800Y-805100D01*
G01X-1447800Y-805100D02*
G01X-1447800Y-690800D01*
G01X-1219200Y-805100D02*
G01X-1219200Y-869598D01*
G01X-1211671Y910398D02*
G01X-1211671Y845900D01*
G01X-1211671Y845900D02*
G01X-1003300Y845900D01*
G01X-1003300Y845900D02*
G01X-1003300Y-805100D01*
G01X-1003300Y-805100D02*
G01X-1219200Y-805100D01*
G01X-1320800Y845900D02*
G01X-1320800Y910398D01*
G01X-1409700Y845900D02*
G01X-1320800Y845900D01*

G04 Rect Start*
G01X-855100Y-589800D02*
G01X-855100Y610200D01*
G01X844900Y610200D01*
G01X844900Y-589800D01*
G01X-855100Y-589800D01*
G04 Rect End*

G04 Circle Start*
G54D11*
G01X-449600Y479400D03*
G01X-449600Y739944D03*
G54D12*
G01X-1091400Y647700D03*
G04 Circle End*

M02*

