G04 Layer: BottomLayer*
G04 EasyEDA Pro v2.2.47.7, 2026-05-09 17:53:35*
G04 Gerber Generator version 0.3*
G04 Scale: 100 percent, Rotated: No, Reflected: No*
G04 Dimensions in millimeters*
G04 Leading zeros omitted, absolute positions, 4 integers and 5 decimals*
G04 Generated by one-click*
G04 Object Configs: Pad,Via,Track,Text,Image,Dimension,BoardOutline,BoardCutout,CopperFilled,SolidRegion,FPCStiffener,Line,PlaneZone,ComponentProperty,ComponentSilkscreen,TearDrop*
G04 Layer Configs: 1,2,3,4,5,6,7,8,9,10,11,13,14,56*
G04 Copper Areas: 5*
%FSLAX45Y45*%
%MOMM*%
%ADD10C,0.2032*%
%ADD11C,0.254*%
%ADD12R,1.8X1.8*%
%ADD13C,1.8*%
%ADD14C,0.61*%
%ADD15C,0.8905*%
G75*


G04 Copper Start*
G36*
G01X1708386Y994386D02*
G01X1708386Y-979086D01*
G01X-1728786Y-979086D01*
G01X-1728786Y555390D01*
G01X-1395804Y555390D01*
G01X-1394051Y544323D01*
G01X-1388964Y534339D01*
G01X-1381041Y526416D01*
G01X-1371057Y521329D01*
G01X-1359990Y519576D01*
G01X-1290243Y519576D01*
G01X-1312047Y513979D01*
G01X-1332504Y504587D01*
G01X-1350960Y491699D01*
G01X-1366824Y475729D01*
G01X-1379588Y457187D01*
G01X-1388844Y436667D01*
G01X-1394295Y414827D01*
G01X-1395767Y392365D01*
G01X-1393212Y369999D01*
G01X-1386713Y348448D01*
G01X-1376477Y328399D01*
G01X-1362833Y310495D01*
G01X-1346216Y295309D01*
G01X-1327159Y283328D01*
G01X-1306272Y274934D01*
G01X-1284223Y270397D01*
G01X-1305337Y266137D01*
G01X-1325415Y258339D01*
G01X-1343868Y247229D01*
G01X-1360156Y233135D01*
G01X-1373802Y216470D01*
G01X-1384404Y197721D01*
G01X-1391654Y177438D01*
G01X-1395337Y156216D01*
G01X-1395347Y134677D01*
G01X-1391682Y113452D01*
G01X-1384451Y93163D01*
G01X-1373865Y74404D01*
G01X-1360234Y57726D01*
G01X-1343959Y43618D01*
G01X-1325515Y32493D01*
G01X-1305444Y24676D01*
G01X-1284334Y20397D01*
G01X-1305444Y16119D01*
G01X-1325515Y8302D01*
G01X-1343959Y-2823D01*
G01X-1360234Y-16932D01*
G01X-1373865Y-33609D01*
G01X-1384451Y-52368D01*
G01X-1391682Y-72657D01*
G01X-1395347Y-93882D01*
G01X-1395337Y-115421D01*
G01X-1391654Y-136643D01*
G01X-1384404Y-156926D01*
G01X-1373802Y-175675D01*
G01X-1360156Y-192341D01*
G01X-1343868Y-206434D01*
G01X-1325415Y-217544D01*
G01X-1305337Y-225342D01*
G01X-1284223Y-229602D01*
G01X-1305337Y-233862D01*
G01X-1325415Y-241660D01*
G01X-1343868Y-252770D01*
G01X-1360156Y-266864D01*
G01X-1373802Y-283529D01*
G01X-1384404Y-302278D01*
G01X-1391654Y-322561D01*
G01X-1395337Y-343783D01*
G01X-1395347Y-365322D01*
G01X-1391682Y-386547D01*
G01X-1384451Y-406836D01*
G01X-1373865Y-425595D01*
G01X-1360234Y-442273D01*
G01X-1343959Y-456381D01*
G01X-1325515Y-467506D01*
G01X-1305444Y-475323D01*
G01X-1284334Y-479602D01*
G01X-1306249Y-484119D01*
G01X-1327016Y-492447D01*
G01X-1345980Y-504322D01*
G01X-1362541Y-519369D01*
G01X-1376174Y-537111D01*
G01X-1386449Y-556987D01*
G01X-1393040Y-578370D01*
G01X-1395740Y-600581D01*
G01X-1394462Y-622920D01*
G01X-1389248Y-644679D01*
G01X-1380261Y-665170D01*
G01X-1367787Y-683745D01*
G01X-1352220Y-699817D01*
G01X-1334052Y-712878D01*
G01X-1313858Y-722513D01*
G01X-1292276Y-728419D01*
G01X-1269990Y-730409D01*
G01X-1247703Y-728419D01*
G01X-1226122Y-722513D01*
G01X-1205928Y-712878D01*
G01X-1187760Y-699817D01*
G01X-1172193Y-683745D01*
G01X-1159718Y-665170D01*
G01X-1150732Y-644679D01*
G01X-1145518Y-622920D01*
G01X-1144240Y-600581D01*
G01X-1146940Y-578370D01*
G01X-1153531Y-556987D01*
G01X-1163806Y-537111D01*
G01X-1177439Y-519369D01*
G01X-1194000Y-504322D01*
G01X-1212963Y-492447D01*
G01X-1233731Y-484119D01*
G01X-1255645Y-479602D01*
G01X-1234535Y-475323D01*
G01X-1214464Y-467506D01*
G01X-1196021Y-456381D01*
G01X-1179745Y-442273D01*
G01X-1166115Y-425595D01*
G01X-1155529Y-406836D01*
G01X-1148298Y-386547D01*
G01X-1144633Y-365322D01*
G01X-1144643Y-343783D01*
G01X-1148326Y-322561D01*
G01X-1155575Y-302278D01*
G01X-1166178Y-283529D01*
G01X-1179823Y-266864D01*
G01X-1196111Y-252770D01*
G01X-1214565Y-241660D01*
G01X-1234643Y-233862D01*
G01X-1255756Y-229602D01*
G01X-1234643Y-225342D01*
G01X-1214565Y-217544D01*
G01X-1196111Y-206434D01*
G01X-1179823Y-192341D01*
G01X-1166178Y-175675D01*
G01X-1155575Y-156926D01*
G01X-1148326Y-136643D01*
G01X-1144643Y-115421D01*
G01X-1144633Y-93882D01*
G01X-1148298Y-72657D01*
G01X-1155529Y-52368D01*
G01X-1166115Y-33609D01*
G01X-1179745Y-16932D01*
G01X-1196021Y-2823D01*
G01X-1214464Y8302D01*
G01X-1234535Y16119D01*
G01X-1255645Y20397D01*
G01X-1234535Y24676D01*
G01X-1214464Y32493D01*
G01X-1196021Y43618D01*
G01X-1179745Y57726D01*
G01X-1166115Y74404D01*
G01X-1155529Y93163D01*
G01X-1148298Y113452D01*
G01X-1144633Y134677D01*
G01X-1144643Y156216D01*
G01X-1148326Y177438D01*
G01X-1155575Y197721D01*
G01X-1166178Y216470D01*
G01X-1179823Y233135D01*
G01X-1196111Y247229D01*
G01X-1214565Y258339D01*
G01X-1234643Y266137D01*
G01X-1255756Y270397D01*
G01X-1255756Y270397D01*
G01X-1233708Y274934D01*
G01X-1212821Y283328D01*
G01X-1193764Y295309D01*
G01X-1177147Y310495D01*
G01X-1163502Y328399D01*
G01X-1153267Y348448D01*
G01X-1146767Y369999D01*
G01X-1144213Y392365D01*
G01X-1145684Y414827D01*
G01X-1151135Y436667D01*
G01X-1160391Y457187D01*
G01X-1173155Y475729D01*
G01X-1189020Y491699D01*
G01X-1207476Y504587D01*
G01X-1227933Y513979D01*
G01X-1249737Y519576D01*
G01X-1179990Y519576D01*
G01X-1168923Y521329D01*
G01X-1158939Y526416D01*
G01X-1151016Y534339D01*
G01X-1145929Y544323D01*
G01X-1144176Y555390D01*
G01X-1144176Y714990D01*
G01X1144196Y714990D01*
G01X1144196Y534990D01*
G01X1145949Y523923D01*
G01X1151036Y513939D01*
G01X1158959Y506016D01*
G01X1168943Y500929D01*
G01X1180010Y499176D01*
G01X1249757Y499176D01*
G01X1227953Y493579D01*
G01X1207496Y484187D01*
G01X1189040Y471299D01*
G01X1173176Y455329D01*
G01X1160412Y436787D01*
G01X1151156Y416267D01*
G01X1145705Y394427D01*
G01X1144233Y371965D01*
G01X1146788Y349599D01*
G01X1153287Y328048D01*
G01X1163523Y307999D01*
G01X1177167Y290095D01*
G01X1193784Y274909D01*
G01X1212841Y262928D01*
G01X1233728Y254534D01*
G01X1255777Y249997D01*
G01X1234663Y245737D01*
G01X1214585Y237939D01*
G01X1196132Y226829D01*
G01X1179844Y212735D01*
G01X1166198Y196070D01*
G01X1155596Y177321D01*
G01X1148346Y157038D01*
G01X1144663Y135816D01*
G01X1144653Y114277D01*
G01X1148318Y93052D01*
G01X1155549Y72763D01*
G01X1166135Y54004D01*
G01X1179766Y37326D01*
G01X1196041Y23218D01*
G01X1214485Y12093D01*
G01X1234556Y4276D01*
G01X1255666Y-3D01*
G01X1234556Y-4281D01*
G01X1214485Y-12098D01*
G01X1196041Y-23223D01*
G01X1179766Y-37332D01*
G01X1166135Y-54009D01*
G01X1155549Y-72768D01*
G01X1148318Y-93057D01*
G01X1144653Y-114282D01*
G01X1144663Y-135821D01*
G01X1148346Y-157043D01*
G01X1155596Y-177326D01*
G01X1166198Y-196075D01*
G01X1179844Y-212741D01*
G01X1196132Y-226834D01*
G01X1214585Y-237944D01*
G01X1234663Y-245742D01*
G01X1255777Y-250002D01*
G01X1234663Y-254262D01*
G01X1214585Y-262060D01*
G01X1196132Y-273170D01*
G01X1179844Y-287264D01*
G01X1166198Y-303929D01*
G01X1155596Y-322678D01*
G01X1148346Y-342961D01*
G01X1144663Y-364183D01*
G01X1144653Y-385722D01*
G01X1148318Y-406947D01*
G01X1155549Y-427236D01*
G01X1166135Y-445995D01*
G01X1179766Y-462673D01*
G01X1196041Y-476781D01*
G01X1214485Y-487906D01*
G01X1234556Y-495723D01*
G01X1255666Y-500002D01*
G01X1233751Y-504519D01*
G01X1212984Y-512847D01*
G01X1194020Y-524722D01*
G01X1177459Y-539769D01*
G01X1163826Y-557511D01*
G01X1153551Y-577387D01*
G01X1146960Y-598770D01*
G01X1144260Y-620981D01*
G01X1145538Y-643320D01*
G01X1150752Y-665079D01*
G01X1159739Y-685570D01*
G01X1172213Y-704145D01*
G01X1187780Y-720217D01*
G01X1205948Y-733278D01*
G01X1226142Y-742913D01*
G01X1247724Y-748819D01*
G01X1270010Y-750809D01*
G01X1292297Y-748819D01*
G01X1313878Y-742913D01*
G01X1334072Y-733278D01*
G01X1352240Y-720217D01*
G01X1367807Y-704145D01*
G01X1380282Y-685570D01*
G01X1389268Y-665079D01*
G01X1394482Y-643320D01*
G01X1395760Y-620981D01*
G01X1393060Y-598770D01*
G01X1386469Y-577387D01*
G01X1376194Y-557511D01*
G01X1362561Y-539769D01*
G01X1346000Y-524722D01*
G01X1327037Y-512847D01*
G01X1306269Y-504519D01*
G01X1284355Y-500002D01*
G01X1305465Y-495723D01*
G01X1325536Y-487906D01*
G01X1343979Y-476781D01*
G01X1360255Y-462673D01*
G01X1373885Y-445995D01*
G01X1384471Y-427236D01*
G01X1391702Y-406947D01*
G01X1395367Y-385722D01*
G01X1395357Y-364183D01*
G01X1391674Y-342961D01*
G01X1384425Y-322678D01*
G01X1373822Y-303929D01*
G01X1360177Y-287264D01*
G01X1343889Y-273170D01*
G01X1325435Y-262060D01*
G01X1305357Y-254262D01*
G01X1284244Y-250002D01*
G01X1305357Y-245742D01*
G01X1325435Y-237944D01*
G01X1343889Y-226834D01*
G01X1360177Y-212741D01*
G01X1373822Y-196075D01*
G01X1384425Y-177326D01*
G01X1391674Y-157043D01*
G01X1395357Y-135821D01*
G01X1395367Y-114282D01*
G01X1391702Y-93057D01*
G01X1384471Y-72768D01*
G01X1373885Y-54009D01*
G01X1360255Y-37332D01*
G01X1343979Y-23223D01*
G01X1325536Y-12098D01*
G01X1305465Y-4281D01*
G01X1284355Y-3D01*
G01X1305465Y4276D01*
G01X1325536Y12093D01*
G01X1343979Y23218D01*
G01X1360255Y37326D01*
G01X1373885Y54004D01*
G01X1384471Y72763D01*
G01X1391702Y93052D01*
G01X1395367Y114277D01*
G01X1395357Y135816D01*
G01X1391674Y157038D01*
G01X1384425Y177321D01*
G01X1373822Y196070D01*
G01X1360177Y212735D01*
G01X1343889Y226829D01*
G01X1325435Y237939D01*
G01X1305357Y245737D01*
G01X1284244Y249997D01*
G01X1284244Y249997D01*
G01X1306292Y254534D01*
G01X1327179Y262928D01*
G01X1346236Y274909D01*
G01X1362853Y290095D01*
G01X1376498Y307999D01*
G01X1386733Y328048D01*
G01X1393233Y349599D01*
G01X1395787Y371965D01*
G01X1394316Y394427D01*
G01X1388865Y416267D01*
G01X1379609Y436787D01*
G01X1366845Y455329D01*
G01X1350980Y471299D01*
G01X1332524Y484187D01*
G01X1312067Y493579D01*
G01X1290263Y499176D01*
G01X1360010Y499176D01*
G01X1371077Y500929D01*
G01X1381061Y506016D01*
G01X1388984Y513939D01*
G01X1394071Y523923D01*
G01X1395824Y534990D01*
G01X1395824Y714990D01*
G01X1394071Y726057D01*
G01X1388984Y736041D01*
G01X1381061Y743964D01*
G01X1371077Y749051D01*
G01X1360010Y750804D01*
G01X1180010Y750804D01*
G01X1168943Y749051D01*
G01X1158959Y743964D01*
G01X1151036Y736041D01*
G01X1145949Y726057D01*
G01X1144196Y714990D01*
G01X-1144176Y714990D01*
G01X-1144176Y735390D01*
G01X-1145929Y746457D01*
G01X-1151016Y756441D01*
G01X-1158939Y764364D01*
G01X-1168923Y769451D01*
G01X-1179990Y771204D01*
G01X-1359990Y771204D01*
G01X-1371057Y769451D01*
G01X-1381041Y764364D01*
G01X-1388964Y756441D01*
G01X-1394051Y746457D01*
G01X-1395804Y735390D01*
G01X-1395804Y555390D01*
G01X-1728786Y555390D01*
G01X-1728786Y994386D01*
G01X1708386Y994386D01*
G37*
G54D10*
G01X1708386Y994386D02*
G01X1708386Y-979086D01*
G01X-1728786Y-979086D01*
G01X-1728786Y994386D01*
G01X1708386Y994386D01*
G01X-1255756Y270397D02*
G03X-1249737Y519576I-14233J125006D01*
G01X-1179990Y519576D01*
G03X-1144176Y555390I0J35814D01*
G01X-1144176Y735390D01*
G03X-1179990Y771204I-35814J0D01*
G01X-1359990Y771204D01*
G03X-1395804Y735390I0J-35814D01*
G01X-1395804Y555390D01*
G03X-1359990Y519576I35814J0D01*
G01X-1290243Y519576D01*
G03X-1284223Y270397I20253J-124173D01*
G03X-1284334Y20397I14233J-125006D01*
G03X-1284223Y-229602I14345J-124993D01*
G03X-1284334Y-479602I14233J-125006D01*
G03X-1269990Y-730409I14345J-124993D01*
G03X-1255645Y-479602I0J125814D01*
G03X-1255756Y-229602I-14345J124993D01*
G03X-1255645Y20397I-14233J125006D01*
G03X-1255756Y270397I-14345J124993D01*
G01X1284244Y249997D02*
G03X1290263Y499176I-14233J125006D01*
G01X1360010Y499176D01*
G03X1395824Y534990I0J35814D01*
G01X1395824Y714990D01*
G03X1360010Y750804I-35814J0D01*
G01X1180010Y750804D01*
G03X1144196Y714990I0J-35814D01*
G01X1144196Y534990D01*
G03X1180010Y499176I35814J0D01*
G01X1249757Y499176D01*
G03X1255777Y249997I20253J-124173D01*
G03X1255666Y-3I14233J-125006D01*
G03X1255777Y-250002I14345J-124993D01*
G03X1255666Y-500002I14233J-125006D01*
G03X1270010Y-750809I14345J-124993D01*
G03X1284355Y-500002I0J125814D01*
G03X1284244Y-250002I-14345J124993D01*
G03X1284355Y-3I-14233J125006D01*
G03X1284244Y249997I-14345J124993D01*
G54D11*
G01X1180264Y-375008D02*
G01X1154356Y-375008D01*
G01X1359756Y-375008D02*
G01X1385664Y-375008D01*
G01X-1359736Y395403D02*
G01X-1385644Y395403D01*
G01X-1180244Y395403D02*
G01X-1154336Y395403D01*
G04 Copper End*

G04 Pad Start*
G54D12*
G01X1270010Y624990D03*
G54D13*
G01X1270010Y375003D03*
G01X1270010Y124991D03*
G01X1270010Y-124996D03*
G01X1270010Y-375008D03*
G01X1270010Y-624995D03*
G54D12*
G01X-1269990Y645390D03*
G54D13*
G01X-1269990Y395403D03*
G01X-1269990Y145391D03*
G01X-1269990Y-104596D03*
G01X-1269990Y-354608D03*
G01X-1269990Y-604595D03*
G04 Pad End*

G04 Via Start*
G54D14*
G01X-601800Y-117300D03*
G01X-198900Y-438600D03*
G01X984300Y198900D03*
G01X902140Y-375008D03*
G04 Via End*

M02*

